<?xml version="1.0" standalone="no"?>
<!DOCTYPE svg PUBLIC "-//W3C//DTD SVG 20010904//EN"
 "http://www.w3.org/TR/2001/REC-SVG-20010904/DTD/svg10.dtd">
<svg version="1.0" xmlns="http://www.w3.org/2000/svg"
 width="441.000000pt" height="364.000000pt" viewBox="0 0 441.000000 364.000000"
 preserveAspectRatio="xMidYMid meet">

<g transform="translate(0.000000,364.000000) scale(0.100000,-0.100000)"
fill="#000000" stroke="none">
<path d="M19 3623 c-1 -5 -2 -821 -3 -1815 l-1 -1808 2197 0 2198 0 0 1815 0
1815 -2195 0 c-1207 0 -2196 -3 -2196 -7z m4365 -39 c3 -9 6 -200 6 -424 0
-394 -1 -410 -19 -420 -31 -16 -4306 -14 -4317 3 -5 6 -8 202 -6 435 l2 422
2164 0 c1964 0 2164 -1 2170 -16z m-1278 -975 l52 -51 92 26 c51 15 95 25 97
22 6 -5 -18 -226 -24 -226 -2 0 -25 11 -51 24 -125 63 -285 88 -412 63 -41 -8
-77 -14 -78 -12 -6 5 20 155 28 160 3 2 29 -7 56 -20 27 -14 56 -24 64 -24 8
0 38 20 65 44 28 25 52 45 55 45 2 0 28 -23 56 -51z m45 -218 c166 -45 223
-127 188 -266 -14 -54 -74 -125 -126 -150 l-37 -18 24 -16 c95 -62 124 -110
123 -206 0 -138 -74 -226 -231 -278 -98 -32 -289 -32 -383 1 -129 44 -188 126
-176 242 4 33 13 75 21 94 19 47 82 113 128 137 21 11 38 21 38 24 0 2 -21 24
-47 48 -44 42 -47 48 -51 106 -7 90 13 147 70 204 49 49 68 59 153 82 73 20
227 18 306 -4z m-1676 -51 c77 -29 150 -100 160 -153 4 -20 4 -58 0 -85 -6
-40 -15 -55 -61 -100 l-54 -53 32 -19 c57 -34 83 -84 83 -159 0 -136 -91 -233
-265 -283 -50 -14 -429 -18 -492 -5 -34 7 -38 11 -38 38 0 28 17 156 81 604
36 256 26 229 89 236 30 4 134 6 230 5 156 -2 182 -5 235 -26z m548 3 c2 -5
-2 -48 -10 -98 -18 -121 -60 -418 -83 -589 -10 -76 -22 -142 -27 -146 -10 -10
-225 -16 -240 -7 -7 4 -7 24 -2 59 14 83 58 406 80 583 11 88 24 170 29 183 9
21 15 22 129 22 66 0 122 -3 124 -7z m571 -1 c9 -15 -21 -110 -53 -165 -40
-70 -139 -163 -219 -205 -92 -49 -311 -100 -333 -77 -5 4 17 211 25 230 2 6
32 16 67 24 108 22 200 84 240 163 l19 38 125 0 c68 0 126 -4 129 -8z m860
-72 c56 -62 105 -144 134 -223 22 -62 26 -88 26 -187 -1 -101 -4 -124 -29
-190 -44 -117 -84 -175 -182 -261 -199 -174 -505 -209 -750 -85 -65 33 -159
104 -149 113 2 2 31 -10 65 -27 136 -68 314 -87 470 -50 235 57 419 243 465
472 20 97 20 130 0 226 -17 87 -48 160 -94 228 -40 57 -13 47 44 -16z m-1009
-345 c28 -56 30 -67 28 -160 -1 -55 -8 -136 -15 -180 l-13 -80 -124 -3 c-69
-1 -130 -1 -136 2 -9 3 -8 30 2 103 17 116 12 213 -12 249 -20 31 -15 37 50
54 28 8 77 28 110 47 33 18 65 32 70 30 6 -2 24 -30 40 -62z m-367 -603 c28
-18 28 -23 -1 -50 -22 -21 -26 -21 -52 -8 -15 8 -34 12 -41 9 -26 -10 -14 -34
24 -50 56 -23 72 -41 72 -84 0 -28 -8 -47 -28 -70 -24 -27 -37 -33 -83 -36
-42 -3 -61 0 -87 16 -27 17 -31 24 -23 39 20 37 36 43 70 26 36 -18 65 -15 69
7 2 10 -9 21 -28 29 -59 24 -80 48 -80 90 0 47 23 77 75 95 43 15 76 11 113
-13z m-1042 -72 c47 -96 40 -100 61 35 8 49 9 50 46 53 45 4 44 14 13 -168
l-22 -135 -37 -3 -37 -3 -38 80 c-20 44 -40 80 -43 81 -3 0 -12 -35 -20 -77
-13 -74 -15 -78 -43 -81 -16 -2 -32 0 -37 5 -7 7 24 253 36 291 3 9 18 12 42
10 37 -3 39 -6 79 -88z m394 71 c0 -45 -9 -51 -76 -51 -62 0 -64 -1 -64 -25 0
-23 4 -25 46 -25 45 0 45 0 42 -32 -3 -32 -5 -33 -53 -38 -42 -4 -50 -8 -53
-27 -3 -22 0 -23 62 -23 69 0 72 -2 60 -47 -6 -22 -11 -23 -103 -23 -54 0
-100 2 -103 5 -5 5 16 172 33 253 l10 52 100 0 c91 0 99 -2 99 -19z m113 -58
c5 -40 12 -73 17 -73 4 0 21 33 37 73 29 72 29 72 70 75 38 3 41 1 47 -29 3
-17 6 -51 6 -75 0 -23 5 -46 10 -49 6 -3 10 -1 10 4 0 6 14 42 31 81 31 69 32
70 70 70 22 0 39 -2 39 -5 0 -4 -32 -75 -117 -253 -23 -49 -27 -53 -56 -50
-36 3 -41 17 -53 132 l-6 59 -24 -59 c-14 -32 -32 -76 -41 -96 -13 -33 -19
-38 -49 -38 -19 0 -34 3 -34 8 -1 14 -30 208 -39 249 -4 23 -6 45 -2 48 3 3
21 5 41 3 l35 -3 8 -72z m-441 -758 c51 -63 98 -114 104 -115 5 0 44 42 86 93
106 128 116 137 143 137 17 0 26 -7 30 -22 4 -19 2 -161 -4 -265 -1 -18 -7
-23 -26 -23 -24 0 -25 3 -26 63 -1 34 0 74 1 89 1 14 -3 29 -8 32 -6 3 -47
-37 -91 -89 -61 -70 -88 -95 -105 -95 -18 0 -44 24 -103 94 -43 52 -82 93 -87
92 -6 -1 -10 -16 -11 -32 -1 -16 -2 -57 -3 -91 -2 -55 -4 -63 -22 -63 -31 0
-36 27 -32 173 l4 137 28 0 c24 0 43 -18 122 -115z m1938 85 l0 -30 -129 0
c-71 0 -136 -3 -145 -6 -13 -5 -16 -23 -16 -89 0 -66 3 -84 16 -89 9 -3 57 -6
108 -6 98 0 116 7 116 46 0 20 -6 23 -47 26 -41 3 -48 6 -51 26 -3 21 -1 22
83 22 l87 0 -4 -65 c-5 -75 -17 -92 -74 -105 -51 -12 -178 -12 -229 0 -63 14
-75 37 -75 142 0 147 13 157 218 158 l142 0 0 -30z m419 15 c16 -8 31 -22 35
-30 8 -23 7 -128 -2 -142 -15 -24 -66 -33 -182 -33 l-119 0 -3 -42 c-3 -40 -5
-43 -35 -46 l-33 -3 0 155 0 156 155 0 c117 0 163 -4 184 -15z m-1617 -83 c20
-19 23 -33 23 -92 0 -58 -4 -73 -22 -92 -20 -20 -33 -22 -125 -23 -57 0 -114
3 -128 7 -76 22 -76 197 0 220 14 4 71 6 127 5 92 -2 105 -5 125 -25z m398 3
c0 -23 -4 -24 -62 -27 l-63 -3 -3 -93 -3 -93 -32 3 -32 3 -3 93 -3 92 -64 0
c-56 0 -65 2 -65 18 0 10 3 22 7 25 3 4 78 7 165 7 l158 0 0 -25z m349 1 c42
-38 36 -172 -9 -196 -55 -29 -232 -23 -272 10 -20 16 -23 27 -23 88 0 54 4 74
19 90 24 28 42 31 163 28 83 -1 105 -5 122 -20z"/>
<path d="M395 3282 c-64 -27 -100 -57 -120 -102 -22 -49 -12 -80 37 -110 29
-18 48 -20 163 -18 l130 3 15 43 14 42 73 0 72 0 32 -45 32 -45 293 0 293 0
35 34 c47 44 49 87 6 141 -17 21 -30 46 -30 56 0 16 -8 19 -49 19 -44 0 -49
-3 -55 -25 -7 -26 7 -59 46 -108 38 -48 22 -52 -229 -55 -201 -3 -227 -1 -244
14 -18 17 -18 18 21 51 32 28 40 41 40 69 0 47 -23 54 -169 54 -117 0 -118 0
-130 -26 -6 -14 -9 -30 -6 -35 4 -5 49 -9 101 -9 61 0 93 -4 89 -10 -4 -6 -82
-10 -201 -10 l-194 0 -10 -26 c-16 -41 -13 -44 40 -44 28 0 50 -5 50 -10 0 -7
-29 -10 -77 -8 l-78 3 -3 31 c-2 25 3 37 24 53 23 18 40 21 121 21 91 0 94 1
103 26 6 14 10 30 10 35 0 17 -201 10 -245 -9z"/>
<path d="M1016 3292 c-13 -22 -53 -142 -48 -147 3 -3 67 -5 142 -5 l137 0 12
26 c6 14 9 30 6 35 -4 5 -44 9 -91 9 -54 0 -83 4 -79 10 3 6 47 10 96 10 87 0
90 1 99 26 6 14 10 30 10 35 0 11 -277 12 -284 1z"/>
<path d="M1570 3258 c-36 -78 -78 -193 -73 -200 7 -13 91 -9 100 5 13 20 83
209 83 224 0 9 -14 13 -45 13 -43 0 -46 -2 -65 -42z"/>
<path d="M1707 3293 c-9 -15 -76 -190 -82 -216 -7 -27 -7 -27 43 -27 44 0 52
3 57 23 4 12 13 36 20 52 8 17 21 47 29 68 15 37 16 37 70 37 32 0 56 -4 56
-10 0 -6 -11 -36 -24 -68 -44 -106 -44 -102 13 -102 27 0 53 4 56 10 12 19 57
145 62 173 4 18 -1 34 -12 47 -16 18 -32 20 -151 20 -73 0 -135 -3 -137 -7z"/>
<path d="M2037 3258 c-9 -24 -29 -79 -46 -123 -17 -44 -31 -81 -31 -82 0 -2
23 -3 51 -3 49 0 50 1 65 38 8 20 19 46 24 57 13 26 50 136 50 147 0 4 -22 8
-49 8 -49 0 -49 0 -64 -42z"/>
<path d="M2304 3275 c-8 -13 -13 -29 -9 -35 4 -6 52 -10 121 -10 74 0 113 -4
109 -10 -4 -6 -57 -10 -125 -10 l-119 0 -15 -29 c-9 -16 -12 -31 -9 -35 4 -3
48 -6 100 -6 l93 0 32 -45 32 -45 224 0 225 0 -7 110 c-8 142 -8 142 -65 138
l-46 -3 4 -92 3 -93 -51 0 c-28 0 -51 3 -51 6 0 3 18 28 40 54 22 26 40 53 40
59 0 7 -20 11 -49 11 -48 0 -49 -1 -106 -70 -31 -38 -61 -70 -65 -70 -10 0
-40 34 -40 46 0 5 13 17 30 26 29 16 52 69 42 96 -9 25 -52 32 -187 32 -132 0
-135 -1 -151 -25z"/>
<path d="M3091 3281 c-50 -20 -107 -77 -117 -117 -20 -77 36 -113 177 -114 93
0 96 1 108 26 6 14 9 30 6 35 -4 5 -39 9 -80 9 -40 0 -80 3 -89 6 -26 10 -19
50 15 78 28 24 38 26 119 26 l88 0 10 29 c6 16 8 32 5 35 -4 3 -49 6 -102 5
-68 0 -109 -5 -140 -18z"/>
<path d="M3355 3288 c-2 -7 -22 -60 -43 -118 -22 -58 -38 -108 -35 -112 2 -5
24 -8 49 -8 39 0 46 3 56 28 94 234 92 222 29 222 -32 0 -53 -5 -56 -12z"/>
<path d="M3464 3245 c-13 -31 -24 -60 -24 -65 0 -5 -11 -34 -24 -64 -13 -30
-22 -57 -18 -60 3 -3 26 -6 52 -6 l47 0 34 90 33 90 58 0 c32 0 58 -3 58 -7 0
-3 -11 -34 -24 -67 -44 -113 -45 -108 14 -104 l51 3 28 70 c43 106 46 130 22
154 -19 19 -33 21 -152 21 l-130 0 -25 -55z"/>
<path d="M3895 3279 c-95 -39 -143 -114 -112 -176 23 -43 70 -55 211 -51 l118
3 24 65 c13 36 24 71 24 78 0 9 -26 12 -95 12 -83 0 -96 -2 -105 -19 -21 -41
-13 -51 41 -51 31 0 48 -4 44 -10 -10 -16 -141 -12 -155 5 -16 19 -5 50 27 75
22 17 40 20 118 20 89 0 92 1 103 25 7 14 12 30 12 35 0 6 -44 10 -102 9 -79
0 -115 -5 -153 -20z"/>
<path d="M2944 2215 c-43 -66 -22 -170 33 -163 55 6 93 111 59 163 -23 34 -69
34 -92 0z"/>
<path d="M2890 1845 c-71 -76 -43 -248 36 -220 45 16 68 58 72 130 3 49 0 71
-12 90 -22 33 -65 33 -96 0z"/>
<path d="M1228 2194 c-3 -5 -9 -29 -12 -54 -4 -25 -9 -57 -12 -72 -6 -28 -5
-28 46 -28 150 0 180 139 33 157 -28 3 -53 2 -55 -3z"/>
<path d="M1175 1858 c-8 -26 -22 -153 -18 -160 8 -14 92 -8 133 8 22 9 45 25
50 35 15 27 12 76 -5 93 -31 31 -152 49 -160 24z"/>
<path d="M3190 505 l0 -56 117 3 116 3 10 28 c6 19 6 37 -2 53 -10 23 -14 24
-126 24 l-115 0 0 -55z"/>
<path d="M1645 493 c-11 -3 -26 -10 -32 -15 -16 -13 -17 -80 -1 -96 13 -13
155 -17 174 -4 6 4 14 21 18 38 11 49 -18 76 -85 80 -30 1 -63 0 -74 -3z"/>
<path d="M2369 482 c-22 -15 -27 -80 -7 -100 19 -19 162 -16 178 4 18 20 17
72 -1 88 -20 20 -145 26 -170 8z"/>
</g>
</svg>
