<?xml version="1.0" standalone="no"?>
<!DOCTYPE svg PUBLIC "-//W3C//DTD SVG 20010904//EN"
 "http://www.w3.org/TR/2001/REC-SVG-20010904/DTD/svg10.dtd">
<svg version="1.0" xmlns="http://www.w3.org/2000/svg"
 width="638.000000pt" height="382.000000pt" viewBox="0 0 638.000000 382.000000"
 preserveAspectRatio="xMidYMid meet">

<g transform="translate(0.000000,382.000000) scale(0.100000,-0.100000)"
fill="#000000" stroke="none">
<path d="M0 1915 l0 -1905 3190 0 3190 0 0 1905 0 1905 -3190 0 -3190 0 0
-1905z m1745 900 c123 -21 220 -49 342 -96 120 -47 188 -90 221 -139 23 -33
24 -41 19 -145 -11 -229 -80 -476 -202 -720 -115 -231 -269 -430 -461 -596
-185 -161 -208 -160 -407 16 -105 92 -246 256 -329 380 -172 260 -299 629
-315 920 -7 119 4 148 70 197 118 87 388 173 622 198 108 12 330 4 440 -15z
m1427 -767 l3 -233 138 -3 137 -3 0 -54 0 -55 -200 0 -200 0 0 290 0 290 60 0
60 0 2 -232z m611 91 c21 -6 55 -27 76 -48 43 -43 77 -124 58 -139 -7 -5 -76
-35 -155 -67 -127 -51 -141 -60 -128 -73 25 -26 109 -27 159 -3 54 26 55 26
96 -8 l33 -27 -47 -32 c-155 -103 -362 -41 -406 122 -29 108 43 245 146 275
42 13 123 13 168 0z m307 -19 l0 -30 41 27 c88 58 203 38 259 -44 24 -35 25
-45 28 -205 l4 -168 -61 0 -61 0 0 125 c0 177 -21 218 -113 218 -29 0 -46 -7
-65 -27 -26 -26 -27 -30 -30 -171 l-3 -145 -60 0 -59 0 0 225 0 225 60 0 60 0
0 -30z m727 5 c141 -71 171 -260 56 -366 -51 -48 -92 -63 -168 -63 -140 0
-235 91 -235 226 1 173 187 282 347 203z m251 8 c6 -10 31 -78 57 -151 26 -73
50 -131 52 -128 2 2 28 69 57 147 l52 144 68 3 c83 4 86 28 -26 -246 l-83
-202 -69 2 -69 3 -89 213 c-48 118 -88 218 -88 223 0 5 29 9 65 9 51 0 66 -4
73 -17z m690 -9 c99 -49 148 -158 117 -262 -32 -106 -115 -166 -230 -166 -140
0 -235 91 -235 226 1 173 188 282 348 202z m-1788 -1074 l0 -80 -691 0 c-549
0 -690 3 -686 13 3 6 17 42 33 80 l28 67 658 0 658 0 0 -80z m230 65 c0 -11
-11 -15 -40 -15 -33 0 -40 -3 -40 -19 0 -16 8 -20 38 -23 20 -2 37 -7 37 -13
0 -5 -17 -11 -37 -13 -35 -3 -38 -6 -38 -33 0 -19 -5 -29 -15 -29 -12 0 -15
16 -15 80 l0 80 55 0 c42 0 55 -3 55 -15z m132 -67 c22 -61 25 -78 13 -78 -8
0 -18 6 -22 14 -14 23 -63 26 -76 5 -7 -11 -17 -19 -24 -19 -11 0 -1 40 36
133 19 48 42 30 73 -55z m158 67 c-3 -5 -13 -9 -23 -8 -36 5 -57 -15 -57 -56
0 -45 19 -65 55 -59 27 6 43 -6 25 -17 -21 -13 -71 -7 -90 10 -14 13 -20 31
-20 62 0 57 27 85 78 81 21 -2 35 -7 32 -13z m160 0 c0 -9 -9 -15 -25 -15 -24
0 -25 -2 -25 -65 0 -51 -3 -65 -15 -65 -12 0 -15 14 -15 64 0 59 -2 65 -22 68
-12 2 -23 9 -26 16 -3 9 14 12 62 12 52 0 66 -3 66 -15z m136 7 c36 -24 44
-97 15 -133 -25 -31 -88 -30 -113 1 -21 25 -23 71 -7 103 16 29 28 37 64 37
17 0 35 -4 41 -8z m178 -8 c20 -19 20 -48 1 -64 -13 -11 -13 -15 0 -41 18 -34
18 -39 3 -39 -7 0 -21 14 -30 30 -23 40 -48 40 -48 0 0 -20 -5 -30 -15 -30
-12 0 -15 16 -15 80 l0 80 44 0 c27 0 51 -6 60 -16z m83 -19 c9 -19 20 -35 23
-35 3 0 14 16 23 35 9 19 24 35 32 35 12 0 11 -9 -10 -50 -14 -27 -25 -63 -25
-80 0 -23 -4 -30 -20 -30 -16 0 -20 7 -20 30 0 17 -11 53 -25 80 -21 41 -22
50 -10 50 8 0 23 -16 32 -35z m296 20 c-1 -5 -14 -11 -28 -13 -24 -3 -25 -6
-25 -68 0 -50 -3 -64 -15 -64 -12 0 -15 14 -15 65 0 58 -2 65 -19 65 -22 0
-34 13 -24 24 11 11 128 2 126 -9z m145 3 c-3 -7 -23 -14 -46 -16 -34 -3 -42
-7 -42 -23 0 -16 7 -19 40 -19 22 0 40 -4 40 -10 0 -5 -18 -10 -40 -10 -36 0
-40 -2 -40 -25 0 -23 4 -25 45 -25 25 0 45 -4 45 -10 0 -6 -27 -10 -60 -10
l-60 0 0 73 c0 41 3 77 7 80 3 4 31 7 61 7 38 0 53 -4 50 -12z m146 -62 c14
-41 26 -77 26 -80 0 -13 -28 -5 -34 9 -8 21 -66 19 -82 -2 -26 -37 -26 -1 1
72 36 100 53 101 89 1z m136 14 l17 -55 18 58 c13 41 24 57 36 57 24 0 26 -5
34 -88 7 -63 6 -72 -9 -72 -12 0 -16 10 -17 38 -1 69 -13 79 -28 22 -11 -43
-16 -51 -34 -48 -16 2 -25 16 -37 58 l-16 55 -8 -62 c-5 -47 -11 -63 -22 -63
-13 0 -15 8 -10 40 3 22 9 58 12 81 5 33 9 40 26 37 15 -2 25 -17 38 -58z"/>
<path d="M1272 2789 c-261 -30 -577 -154 -612 -240 -25 -61 6 -318 61 -494
l20 -67 22 20 c111 101 439 148 1142 161 l350 6 12 65 c21 116 32 246 23 286
-11 48 -52 86 -140 126 -261 121 -584 171 -878 137z m279 -275 c12 -11 19 -28
17 -43 -2 -22 -9 -27 -38 -29 -23 -3 -38 2 -47 13 -6 10 -19 15 -27 12 -17 -7
-40 -82 -32 -103 7 -18 25 -18 32 1 4 10 20 15 50 15 53 0 57 -14 14 -55 -37
-36 -116 -46 -155 -21 -74 49 -40 185 55 225 35 15 107 7 131 -15z m-516 -9
c31 -30 32 -74 4 -132 -27 -57 -64 -75 -161 -81 -92 -5 -88 -15 -56 136 l21
102 84 0 c76 0 86 -2 108 -25z m159 -2 c-3 -16 -10 -44 -15 -63 -12 -47 -11
-90 1 -90 14 0 24 30 40 113 l12 67 49 0 c57 0 55 6 26 -110 -19 -74 -26 -87
-56 -107 -42 -28 -124 -32 -160 -7 -21 15 -23 22 -18 68 3 28 11 75 17 104
l12 52 49 0 c49 0 49 0 43 -27z m586 20 c1 -5 7 -56 14 -116 7 -59 10 -110 7
-112 -2 -3 -24 -5 -48 -5 -36 0 -43 3 -43 20 0 16 -7 20 -35 20 -24 0 -37 -6
-45 -20 -8 -15 -21 -20 -50 -20 -23 0 -40 5 -40 11 0 6 26 60 58 120 l57 109
63 0 c34 0 62 -3 62 -7z m256 -9 c-3 -9 -6 -22 -6 -30 0 -9 -11 -14 -30 -14
-34 0 -32 3 -55 -102 l-16 -78 -45 0 c-51 0 -53 6 -29 105 19 78 19 75 -13 75
-26 0 -28 3 -24 30 l4 30 110 0 c96 0 109 -2 104 -16z m114 13 c0 -3 -36 -173
-45 -214 -5 -20 -12 -23 -50 -23 -54 0 -53 -5 -23 137 l21 103 49 0 c26 0 48
-1 48 -3z"/>
<path d="M926 2468 c-10 -28 -24 -113 -21 -117 2 -2 11 -1 20 3 20 7 37 52 33
90 -3 31 -25 47 -32 24z"/>
<path d="M1682 2425 c-15 -33 -15 -35 3 -35 10 0 15 10 15 30 0 37 -3 37 -18
5z"/>
<path d="M2077 2089 c-312 -23 -705 -107 -891 -191 -214 -97 -297 -217 -236
-342 55 -113 249 -332 403 -454 106 -84 128 -84 229 -4 275 219 496 533 612
870 41 118 43 133 19 131 -10 -1 -71 -6 -136 -10z m-847 -348 c13 -26 13 -31
-5 -31 -8 0 -15 7 -15 16 0 12 -9 14 -42 12 -50 -4 -77 -34 -85 -97 -10 -71
44 -106 94 -59 28 26 45 15 17 -12 -50 -51 -134 -23 -134 45 0 45 16 84 48
118 33 34 105 39 122 8z m184 -3 c36 -51 3 -153 -58 -182 -40 -19 -86 -15
-107 10 -30 37 -4 145 43 178 35 25 103 21 122 -6z m174 10 c18 -18 14 -56 -8
-75 -13 -12 -16 -20 -9 -29 12 -14 1 -94 -13 -94 -5 0 -8 19 -6 43 l3 42 -45
0 c-45 0 -45 0 -54 -42 -5 -24 -13 -43 -17 -43 -11 0 -11 16 0 60 5 19 15 61
21 93 l11 57 53 0 c28 0 57 -5 64 -12z m156 6 c17 -7 22 -44 6 -44 -5 0 -10 7
-10 15 0 10 -10 15 -29 15 -44 0 -61 -10 -61 -36 0 -18 10 -28 45 -43 43 -19
50 -28 45 -61 -6 -42 -77 -73 -119 -51 -21 12 -30 51 -11 51 6 0 10 -7 10 -15
0 -23 46 -30 75 -11 37 25 32 51 -14 70 -22 8 -45 25 -51 36 -26 49 50 99 114
74z m176 -4 c0 -5 -25 -10 -55 -10 -30 0 -55 -4 -55 -9 0 -5 -3 -23 -6 -40
l-6 -31 51 0 c32 0 50 -4 46 -10 -3 -5 -28 -10 -56 -10 -32 0 -49 -4 -49 -12
0 -7 -3 -23 -6 -35 -6 -22 -3 -23 44 -23 28 0 54 -4 57 -10 4 -6 -18 -10 -59
-10 -75 0 -72 -6 -51 100 25 118 19 110 86 110 33 0 59 -4 59 -10z m-310 -260
c0 -19 -7 -20 -140 -20 -133 0 -140 1 -140 20 0 19 7 20 140 20 133 0 140 -1
140 -20z"/>
<path d="M1290 1715 c-30 -32 -40 -114 -15 -138 58 -58 164 57 126 139 -15 34
-78 34 -111 -1z"/>
<path d="M1487 1723 c-3 -10 -8 -28 -12 -40 -6 -21 -3 -23 27 -23 44 0 80 25
76 53 -2 18 -11 23 -45 25 -33 2 -42 -1 -46 -15z"/>
<path d="M3622 2022 c-29 -27 -53 -95 -38 -109 6 -6 184 64 201 79 6 6 0 18
-18 34 -41 35 -105 33 -145 -4z"/>
<path d="M4675 2042 c-53 -18 -85 -60 -85 -115 0 -76 50 -127 126 -127 28 0
44 8 70 34 30 30 34 40 34 85 0 44 -5 56 -32 85 -34 35 -77 50 -113 38z"/>
<path d="M5625 2043 c-38 -7 -64 -26 -80 -58 -43 -92 10 -185 106 -185 33 0
47 6 75 34 30 30 34 40 34 85 0 41 -5 56 -27 81 -29 31 -73 49 -108 43z"/>
<path d="M4273 1069 c-14 -37 -12 -42 15 -37 17 3 18 6 8 36 l-11 33 -12 -32z"/>
<path d="M4716 1094 c-19 -18 -21 -75 -4 -92 7 -7 21 -12 33 -12 30 0 45 19
45 56 0 34 -21 64 -45 64 -7 0 -21 -7 -29 -16z"/>
<path d="M4890 1080 c0 -16 7 -20 30 -20 23 0 30 4 30 20 0 16 -7 20 -30 20
-23 0 -30 -4 -30 -20z"/>
<path d="M5576 1068 c-9 -35 -8 -38 15 -38 16 0 19 4 14 23 -11 35 -22 41 -29
15z"/>
</g>
</svg>
