<?xml version="1.0" standalone="no"?>
<!DOCTYPE svg PUBLIC "-//W3C//DTD SVG 20010904//EN"
 "http://www.w3.org/TR/2001/REC-SVG-20010904/DTD/svg10.dtd">
<svg version="1.0" xmlns="http://www.w3.org/2000/svg"
 width="600.000000pt" height="600.000000pt" viewBox="0 0 600.000000 600.000000"
 preserveAspectRatio="xMidYMid meet">

<g transform="translate(0.000000,600.000000) scale(0.100000,-0.100000)"
fill="#000000" stroke="none">
<path d="M904 3639 c-63 -24 -126 -77 -159 -133 -15 -26 -55 -155 -100 -327
-41 -156 -75 -287 -75 -291 0 -5 1082 -8 2405 -8 l2404 0 10 38 c5 20 48 188
96 372 47 184 88 343 91 353 5 16 -109 17 -2308 16 -2270 0 -2314 0 -2364 -20z
m4506 -101 c0 -7 -21 -97 -46 -200 -32 -132 -54 -200 -73 -228 -30 -45 -90
-92 -140 -109 -25 -8 -305 -11 -1022 -11 -544 0 -989 2 -989 5 0 18 115 435
125 455 17 33 64 76 95 89 40 16 2050 14 2050 -1z m-4030 -103 c0 -30 -47 -62
-129 -90 -45 -15 -80 -29 -78 -31 2 -3 41 7 87 21 45 15 84 24 87 21 3 -2 -5
-15 -18 -28 -17 -17 -62 -34 -152 -57 -70 -19 -126 -35 -124 -38 3 -2 57 10
121 27 128 34 151 35 120 4 -14 -14 -47 -25 -98 -34 -42 -7 -74 -15 -72 -18 3
-3 33 1 67 7 33 7 64 9 67 6 12 -12 -29 -34 -75 -41 l-45 -7 33 -21 34 -21
-104 -3 -104 -3 -44 43 c-24 23 -43 47 -43 54 0 22 39 43 223 118 104 42 200
83 215 91 34 18 32 18 32 0z m595 -144 c57 -33 58 -103 2 -145 -41 -30 -173
-30 -213 0 -53 39 -53 118 0 146 56 31 157 30 211 -1z m-435 9 c0 -5 -9 -14
-20 -20 -11 -6 -20 -17 -20 -25 0 -11 13 -15 55 -15 42 0 55 4 55 15 0 8 -9
19 -20 25 -35 19 -12 30 61 30 52 0 69 -3 69 -14 0 -7 -9 -16 -20 -19 -17 -4
-20 -14 -20 -56 0 -40 4 -52 20 -61 38 -20 20 -30 -55 -30 -48 0 -75 4 -75 11
0 6 9 13 20 16 11 3 20 14 20 24 0 16 -8 19 -55 19 -47 0 -55 -3 -55 -19 0
-10 9 -21 20 -24 11 -3 20 -10 20 -16 0 -7 -27 -11 -75 -11 -75 0 -93 10 -55
30 16 9 20 21 20 61 0 42 -3 52 -20 56 -11 3 -20 12 -20 19 0 11 18 14 75 14
42 0 75 -4 75 -10z m667 -50 c25 -33 48 -60 50 -60 1 0 3 20 3 45 0 33 -4 45
-15 45 -8 0 -15 7 -15 15 0 12 13 15 55 15 42 0 55 -3 55 -15 0 -8 -7 -15 -15
-15 -12 0 -15 -15 -15 -75 l0 -75 -54 0 -54 0 -46 62 -46 62 0 -47 c0 -35 4
-47 15 -47 8 0 15 -7 15 -15 0 -11 -13 -15 -54 -15 -56 0 -85 17 -47 27 18 5
21 13 21 63 0 50 -3 58 -21 63 -41 11 -7 27 57 27 l64 0 47 -60z m388 46 c59
-25 73 -84 31 -133 -24 -28 -26 -28 -150 -31 -125 -4 -152 3 -106 28 16 8 20
21 20 60 0 39 -4 52 -20 60 -41 22 -18 30 85 30 69 0 118 -5 140 -14z m295
-60 c25 -38 56 -73 68 -77 45 -17 22 -29 -58 -29 -64 0 -80 3 -80 15 0 8 7 15
16 15 8 0 12 5 9 10 -8 12 -112 13 -119 1 -3 -5 1 -11 9 -15 34 -13 12 -26
-45 -26 -37 0 -60 4 -60 11 0 6 8 13 18 16 15 4 82 99 82 117 0 3 -9 6 -20 6
-11 0 -20 7 -20 15 0 13 13 15 77 13 l77 -3 46 -69z"/>
<path d="M3531 3369 c-12 -35 -21 -71 -21 -81 0 -28 40 -38 146 -38 94 0 94 0
94 25 0 25 0 25 -99 25 -59 0 -102 4 -106 10 -4 6 -1 33 5 61 18 72 6 71 -19
-2z"/>
<path d="M3587 3413 c-3 -10 -8 -30 -11 -45 l-6 -28 85 0 86 0 -20 29 c-36 51
-125 80 -134 44z"/>
<path d="M3483 3388 c-33 -37 -43 -64 -43 -116 0 -115 119 -187 226 -136 32
15 64 48 64 66 0 5 -41 8 -90 8 -159 0 -193 32 -146 136 14 31 26 58 26 60 0
11 -19 1 -37 -18z"/>
<path d="M3883 3390 c-101 -61 -85 -226 25 -246 44 -9 102 9 131 40 l24 25
-27 12 c-22 10 -29 9 -46 -6 -11 -10 -34 -18 -50 -18 -71 0 -95 80 -41 134 35
34 68 37 105 8 28 -22 66 -19 66 6 0 7 -14 25 -31 39 -39 33 -108 36 -156 6z"/>
<path d="M4578 3399 c-10 -5 -18 -19 -18 -29 0 -13 -7 -20 -20 -20 -13 0 -20
-7 -20 -20 0 -11 7 -20 15 -20 12 0 15 -15 15 -75 0 -73 1 -76 27 -86 37 -14
57 -8 61 19 3 17 -2 22 -18 22 -19 0 -21 5 -18 57 3 52 5 58 28 63 33 8 39 37
8 42 -18 2 -23 9 -23 31 1 29 -9 33 -37 16z"/>
<path d="M5088 3403 c-18 -4 -23 -29 -33 -148 -4 -38 -9 -78 -11 -87 -4 -14 1
-18 20 -18 29 0 32 8 41 105 3 39 8 89 12 113 3 23 1 41 -3 41 -5 -1 -17 -3
-26 -6z"/>
<path d="M4138 3344 c-35 -18 -58 -62 -58 -109 0 -27 8 -44 30 -67 27 -26 35
-29 68 -24 20 4 53 7 73 6 41 0 41 0 55 133 6 63 5 67 -14 67 -12 0 -24 -5
-27 -10 -4 -7 -14 -5 -28 5 -27 19 -64 19 -99 -1z m100 -46 c35 -35 0 -108
-52 -108 -39 0 -56 15 -56 52 0 53 73 91 108 56z"/>
<path d="M4365 3335 c-43 -43 -28 -83 40 -105 43 -14 47 -40 7 -40 -15 0 -32
4 -38 10 -10 10 -54 3 -54 -9 0 -12 15 -28 37 -40 56 -29 133 5 133 59 0 30
-30 60 -61 60 -9 0 -22 7 -29 15 -10 12 -9 16 5 21 10 4 25 3 34 -2 21 -13 51
-6 51 11 0 20 -40 45 -73 45 -16 0 -38 -10 -52 -25z"/>
<path d="M4768 3346 c-16 -8 -28 -11 -28 -5 0 5 -11 9 -24 9 -22 0 -24 -5 -30
-67 -4 -38 -10 -83 -13 -100 -5 -30 -3 -33 20 -33 19 0 26 6 31 31 3 17 6 44
6 59 0 27 26 60 48 60 12 0 32 31 32 49 0 15 -10 14 -42 -3z"/>
<path d="M4863 3340 c-38 -23 -55 -51 -56 -96 -2 -84 75 -129 153 -89 42 22
60 53 60 106 0 40 -4 51 -31 73 -37 31 -81 34 -126 6z m95 -42 c17 -17 15 -68
-5 -90 -20 -22 -66 -24 -83 -3 -18 22 -15 62 5 85 20 22 65 26 83 8z"/>
<path d="M1827 3262 c-21 -23 -22 -66 -1 -86 18 -19 75 -21 92 -4 20 20 15 86
-7 98 -30 15 -66 12 -84 -8z"/>
<path d="M2460 3220 l0 -51 48 3 47 3 0 45 0 45 -47 3 -48 3 0 -51z"/>
<path d="M2771 3246 c-17 -20 -10 -29 19 -24 19 3 19 5 8 21 -13 17 -15 17
-27 3z"/>
<path d="M535 2778 c-6 -16 -115 -429 -115 -434 0 -2 1036 -4 2303 -4 2543 0
2360 -5 2449 63 67 51 96 102 134 232 19 66 36 127 40 137 5 17 -85 18 -2401
18 -1915 0 -2407 -3 -2410 -12z m917 -114 c3 -3 2 -21 -2 -40 l-8 -34 48 0
c49 0 60 9 60 50 0 21 29 35 43 21 10 -10 -19 -169 -35 -188 -23 -28 -40 -14
-36 30 l3 42 -45 0 c-44 0 -45 -1 -54 -37 -9 -38 -32 -56 -48 -40 -10 10 19
169 35 190 10 12 30 16 39 6z m1170 -37 l-4 -38 49 3 c44 3 48 5 53 32 6 32
34 56 48 41 6 -6 1 -48 -12 -105 -19 -84 -24 -95 -44 -98 -22 -3 -23 -1 -20
40 l3 43 -45 0 c-43 0 -44 -1 -53 -38 -10 -40 -31 -57 -48 -40 -7 7 -4 36 6
84 21 99 31 121 53 117 13 -3 16 -12 14 -41z m640 37 c5 -3 3 -14 -2 -25 -9
-15 -22 -19 -69 -19 l-59 0 -11 -44 c-16 -66 -17 -66 50 -66 57 0 60 -1 57
-22 -3 -21 -8 -23 -69 -22 -96 1 -103 5 -96 62 10 80 29 125 57 132 30 8 131
10 142 4z m333 -4 c14 -23 -17 -40 -76 -40 -63 0 -62 1 -75 -72 l-6 -38 62 0
c58 0 61 -1 58 -22 -3 -21 -9 -23 -68 -26 -45 -2 -71 2 -85 12 -18 13 -19 18
-7 87 14 79 22 96 55 102 45 9 136 7 142 -3z m-1376 -27 c0 -16 -8 -59 -17
-97 l-17 -70 -50 -3 c-27 -2 -61 -1 -74 2 -22 6 -23 9 -18 55 9 78 20 90 76
90 44 0 49 3 55 25 9 37 46 35 45 -2z m795 -22 c-1 -32 -7 -49 -22 -61 -19
-16 -20 -19 -6 -39 9 -12 13 -28 10 -36 -9 -26 -36 -16 -57 20 -20 34 -50 52
-69 40 -5 -3 -13 -20 -18 -38 -6 -22 -15 -33 -30 -35 -29 -4 -30 -10 13 176 5
22 9 23 93 20 l87 -3 -1 -44z m1566 42 c-4 -52 -39 -178 -52 -187 -29 -18 -32
2 -14 99 17 89 20 95 42 95 13 0 24 -3 24 -7z m-510 -23 c0 -11 7 -20 15 -20
24 0 17 -29 -9 -36 -16 -4 -26 -15 -29 -32 -6 -33 -1 -42 24 -42 14 0 19 -6
17 -17 -4 -25 -50 -28 -76 -6 -19 16 -20 23 -13 56 5 21 5 37 0 37 -5 0 -9 9
-9 20 0 11 7 20 15 20 8 0 19 9 25 20 6 11 17 20 25 20 8 0 15 -9 15 -20z
m-2275 -40 c7 -21 -11 -98 -27 -117 -15 -18 -122 -17 -137 1 -12 14 -9 38 11
104 l10 32 68 0 c59 0 69 -3 75 -20z m202 4 c3 -10 0 -42 -8 -73 -10 -40 -19
-57 -33 -59 -17 -4 -18 1 -12 53 l6 56 -27 -3 c-25 -3 -29 -9 -36 -50 -9 -46
-31 -68 -50 -49 -8 8 1 71 18 127 2 7 31 12 69 13 54 1 68 -2 73 -15z m401
-19 c2 -17 -3 -48 -10 -69 -13 -37 -14 -38 -69 -42 -65 -5 -84 8 -73 50 8 32
17 38 69 47 l40 6 -42 2 c-29 1 -43 6 -43 14 0 23 13 28 70 25 53 -3 55 -4 58
-33z m1355 -23 c-3 -73 -12 -84 -67 -89 -57 -4 -86 10 -86 42 0 30 34 55 80
56 l35 2 -40 6 c-27 4 -41 12 -43 24 -3 16 3 18 60 15 l63 -3 -2 -53z m197 44
c0 -17 -21 -26 -63 -27 -32 -1 -32 -1 8 -13 31 -10 41 -18 43 -37 4 -42 -12
-53 -83 -57 -61 -4 -67 -3 -63 14 2 15 15 20 53 25 38 4 45 7 30 13 -11 4 -30
12 -42 17 -25 9 -31 47 -11 67 18 18 128 16 128 -2z m320 9 c0 -20 -17 -35
-41 -35 -23 0 -30 -5 -35 -27 -14 -64 -21 -78 -40 -78 -16 0 -18 6 -16 35 1
19 7 51 12 71 10 37 11 37 65 38 30 0 55 -1 55 -4z m185 -5 c11 -17 -6 -109
-22 -125 -16 -17 -109 -21 -132 -6 -10 7 -12 21 -8 55 11 79 19 86 92 86 35 0
67 -5 70 -10z"/>
<path d="M2096 2554 c-13 -35 -7 -54 19 -54 24 0 45 29 45 61 0 16 -57 10 -64
-7z"/>
<path d="M2876 2604 c-3 -9 -6 -18 -6 -20 0 -2 23 -4 50 -4 43 0 50 3 50 20 0
17 -7 20 -44 20 -31 0 -46 -5 -50 -16z"/>
<path d="M1678 2540 c-5 -36 -2 -40 29 -40 16 0 27 8 33 26 15 39 13 44 -24
44 -30 0 -34 -3 -38 -30z"/>
<path d="M2290 2510 c0 -5 11 -10 25 -10 14 0 25 5 25 10 0 6 -11 10 -25 10
-14 0 -25 -4 -25 -10z"/>
<path d="M3650 2510 c0 -5 11 -10 25 -10 14 0 25 5 25 10 0 6 -11 10 -25 10
-14 0 -25 -4 -25 -10z"/>
<path d="M4346 2554 c-14 -37 -7 -54 23 -54 29 0 41 14 41 51 0 24 -55 27 -64
3z"/>
</g>
</svg>
