<?xml version="1.0" standalone="no"?>
<!DOCTYPE svg PUBLIC "-//W3C//DTD SVG 20010904//EN"
 "http://www.w3.org/TR/2001/REC-SVG-20010904/DTD/svg10.dtd">
<svg version="1.0" xmlns="http://www.w3.org/2000/svg"
 width="298.000000pt" height="70.000000pt" viewBox="0 0 298.000000 70.000000"
 preserveAspectRatio="xMidYMid meet">

<g transform="translate(0.000000,70.000000) scale(0.100000,-0.100000)"
fill="#000000" stroke="none">
<path d="M1095 355 c0 -192 1 -270 2 -172 2 98 2 256 0 350 -1 95 -3 15 -2
-178z"/>
<path d="M300 576 c14 -15 73 -66 131 -113 l105 -85 29 -116 c43 -180 46 -188
55 -171 4 7 22 75 41 151 l33 136 105 85 c171 138 167 147 -11 28 -92 -61
-170 -111 -173 -111 -3 0 -81 50 -173 111 -92 62 -156 100 -142 85z"/>
<path d="M340 585 c0 -2 62 -36 137 -76 l137 -73 134 70 c202 104 187 105 -42
0 -43 -20 -84 -36 -91 -36 -7 0 -48 16 -91 36 -140 64 -184 83 -184 79z"/>
<path d="M1310 556 c0 -6 130 -96 142 -99 6 -1 18 22 29 51 l18 52 -95 0 c-52
0 -94 -2 -94 -4z"/>
<path d="M1526 538 c-8 -13 -27 -63 -41 -113 -15 -49 -30 -96 -32 -102 -4 -10
35 -13 176 -13 l181 0 10 26 c6 14 10 30 10 35 0 5 -52 9 -120 9 -66 0 -120 1
-120 3 0 1 11 38 25 82 14 44 25 83 25 88 0 4 -22 7 -50 7 -40 0 -52 -4 -64
-22z"/>
<path d="M1948 544 c-34 -18 -45 -38 -79 -146 l-27 -88 182 0 183 0 10 35 11
35 -117 0 c-65 0 -120 3 -124 6 -8 8 13 65 31 87 13 14 33 17 129 17 113 0
114 0 123 26 6 14 10 30 10 35 0 5 -64 9 -152 9 -116 -1 -160 -4 -180 -16z"/>
<path d="M2318 543 c-14 -16 -78 -202 -78 -226 0 -4 26 -7 57 -5 l56 3 26 85
27 85 92 3 92 3 -9 -23 c-7 -21 -15 -23 -84 -26 -75 -3 -76 -3 -82 -33 -4 -17
-5 -32 -3 -33 1 -2 36 -26 77 -54 72 -51 76 -52 145 -52 l70 0 -67 46 -67 46
43 22 c39 19 44 27 69 99 l27 77 -188 0 c-166 0 -190 -2 -203 -17z"/>
</g>
</svg>
