<?xml version="1.0" standalone="no"?>
<!DOCTYPE svg PUBLIC "-//W3C//DTD SVG 20010904//EN"
 "http://www.w3.org/TR/2001/REC-SVG-20010904/DTD/svg10.dtd">
<svg version="1.0" xmlns="http://www.w3.org/2000/svg"
 width="316.000000pt" height="316.000000pt" viewBox="0 0 316.000000 316.000000"
 preserveAspectRatio="xMidYMid meet">

<g transform="translate(0.000000,316.000000) scale(0.100000,-0.100000)"
fill="#000000" stroke="none">
<path d="M226 3080 c-15 -5 -37 -17 -48 -27 -50 -45 -48 27 -48 -1470 0 -1311
1 -1400 18 -1432 9 -19 30 -44 45 -55 28 -21 29 -21 1387 -21 1358 0 1359 0
1387 21 15 11 36 36 45 55 17 32 18 121 18 1434 0 1370 0 1401 -20 1432 -10
18 -31 40 -47 50 -26 17 -94 18 -1368 20 -737 1 -1353 -2 -1369 -7z m1360
-172 c4 -7 4 -10 -1 -6 -4 4 -15 2 -24 -5 -14 -11 -14 -10 -2 6 16 20 18 21
27 5z m-1 -43 c45 -20 59 -32 73 -64 15 -34 21 -38 37 -29 19 9 19 8 3 -5 -10
-8 -18 -21 -18 -30 0 -9 -4 -18 -9 -22 -19 -11 -41 -68 -36 -94 5 -22 4 -23
-4 -6 -9 18 -10 18 -10 2 -1 -10 4 -28 10 -39 9 -16 8 -19 -2 -13 -9 6 -11 3
-6 -9 4 -10 7 -27 7 -37 0 -11 4 -18 8 -15 4 3 7 -13 6 -35 -1 -21 2 -36 7
-33 11 6 11 6 -1 -34 -8 -31 -8 -32 8 -20 9 7 4 -3 -10 -22 -23 -30 -26 -44
-25 -102 1 -36 5 -64 10 -61 4 2 7 2 7 -1 0 -2 3 -13 6 -23 5 -15 4 -16 -6 -3
-10 13 -11 12 -6 -3 3 -10 6 -24 6 -30 0 -9 3 -8 8 0 5 8 8 -2 9 -24 1 -23 -6
-47 -18 -61 -10 -14 -19 -30 -19 -38 0 -7 -10 -34 -21 -61 -18 -39 -22 -66
-21 -141 1 -51 -3 -135 -8 -185 -8 -82 -6 -96 11 -130 13 -26 17 -47 12 -60
-4 -12 -8 -33 -9 -47 -6 -108 -19 -173 -40 -207 -26 -43 -31 -28 -13 43 12 48
2 102 -29 153 -11 18 -12 29 -3 48 6 13 8 29 5 34 -6 10 -12 108 -17 254 -1
33 -8 71 -16 84 -11 19 -11 32 0 70 6 25 15 51 19 56 4 6 11 28 14 50 4 22 12
54 18 72 9 26 8 43 -6 91 -14 46 -17 75 -11 126 4 44 3 71 -4 80 -7 8 -12 60
-13 122 -1 91 -5 112 -20 127 -20 20 -24 37 -7 37 6 0 9 19 7 50 -4 53 -40
105 -65 96 -7 -3 -23 -1 -36 5 -36 16 -75 -3 -76 -38 0 -15 0 -38 -1 -50 0
-13 -5 -23 -10 -23 -6 0 -19 -9 -30 -20 -23 -23 -29 -119 -7 -121 8 0 8 -2 -2
-6 -11 -4 -11 -7 0 -13 10 -7 9 -13 -3 -32 -21 -33 -30 -75 -17 -83 6 -4 7
-19 4 -36 -4 -18 -2 -36 5 -44 7 -8 10 -24 7 -35 -3 -12 -1 -18 5 -14 6 4 8
-1 5 -12 -3 -11 3 -35 13 -54 11 -19 19 -29 20 -21 0 8 2 12 5 9 3 -3 -5 -27
-19 -54 -15 -30 -21 -53 -16 -59 5 -6 7 -28 3 -49 -4 -27 -2 -40 10 -49 14
-11 13 -22 -14 -115 -29 -98 -29 -106 -16 -151 7 -26 10 -56 6 -67 -9 -26 -5
-256 5 -311 6 -31 5 -43 -3 -43 -7 0 -10 7 -7 18 3 10 -3 35 -14 57 -11 22
-20 56 -20 76 0 37 -26 155 -39 174 -6 9 -9 53 -10 119 0 16 -10 37 -21 48
l-20 19 25 39 c20 32 25 53 25 104 0 44 -5 67 -15 76 -8 7 -12 17 -8 23 20 33
-9 199 -47 264 -23 39 -21 95 6 161 20 48 12 137 -15 166 -12 12 -19 30 -16
38 15 38 -85 88 -178 88 -24 0 -28 3 -17 10 8 5 24 10 35 10 11 0 33 7 49 15
15 8 48 15 72 15 25 0 55 7 69 16 18 12 28 13 44 5 31 -17 36 -13 15 11 l-19
22 26 -20 c15 -10 25 -22 23 -26 -2 -3 14 -4 36 -1 23 3 46 1 53 -6 11 -8 22
-7 45 5 18 8 34 19 37 25 4 5 21 9 39 9 18 0 36 3 40 8 4 4 26 12 49 19 23 6
43 11 44 12 1 1 27 -10 58 -24z m365 -4 c0 -5 -7 -12 -16 -15 -14 -5 -15 -4
-4 9 14 17 20 19 20 6z m-255 -20 c3 -5 0 -13 -6 -17 -7 -4 -9 -3 -5 4 3 5 0
13 -6 15 -9 4 -10 6 -1 6 6 1 14 -3 18 -8z m285 -30 c37 -26 72 -116 64 -166
-3 -22 -7 -49 -8 -60 -5 -39 -18 -65 -28 -59 -7 4 -7 0 0 -13 8 -15 6 -26 -8
-48 -10 -16 -17 -32 -14 -36 3 -5 -1 -17 -8 -28 -9 -16 -9 -23 3 -37 8 -10 9
-15 2 -11 -8 5 -8 -5 1 -40 6 -27 11 -71 10 -100 -2 -49 10 -100 30 -132 6
-10 5 -12 -2 -7 -8 5 -12 -3 -12 -26 0 -25 3 -29 10 -18 16 24 11 6 -10 -42
-14 -32 -17 -52 -11 -74 4 -16 4 -41 0 -57 -5 -16 -4 -25 2 -22 13 9 11 -2 -5
-28 -15 -24 -22 -131 -8 -109 12 18 3 -87 -9 -110 -15 -28 -10 -45 6 -24 23
31 18 16 -20 -57 -19 -37 -35 -82 -36 -100 -1 -32 -1 -32 -11 8 -5 22 -6 59
-3 83 4 25 1 56 -7 77 -9 26 -9 40 -1 53 17 29 25 80 15 99 -7 12 -6 26 4 46
21 39 23 248 4 299 -10 28 -11 47 -3 82 9 41 8 49 -15 87 -21 36 -24 49 -19
99 5 45 3 61 -9 71 -13 11 -11 16 12 40 22 23 25 31 15 43 -7 8 -10 20 -6 26
3 5 7 40 8 76 2 79 -11 97 -79 99 -25 1 -50 7 -57 14 -6 6 -24 11 -41 11 -28
0 -29 0 -11 20 10 11 31 20 46 20 15 0 31 5 34 10 3 6 15 10 25 10 11 0 29 14
42 30 19 26 27 30 53 25 16 -4 41 -14 55 -24z m41 12 c13 -16 12 -17 -3 -4
-10 7 -18 15 -18 17 0 8 8 3 21 -13z m-1369 -1979 c58 -19 122 -74 151 -128
28 -54 31 -174 4 -227 -41 -83 -123 -139 -215 -147 -73 -6 -134 14 -188 61
-67 59 -88 107 -89 197 0 64 4 82 27 122 68 114 191 163 310 122z m341 -66 c9
-29 21 -75 29 -103 l13 -49 29 102 28 102 44 0 c29 0 44 -4 44 -13 0 -7 -20
-73 -45 -147 -39 -116 -45 -145 -45 -217 l0 -83 -55 0 -55 0 0 83 c0 72 -6
101 -45 217 -25 74 -45 140 -45 147 0 9 15 13 44 13 l45 0 14 -52z m429 -158
c48 -267 48 -250 -7 -250 -47 0 -46 -2 -58 90 -2 10 -14 15 -37 15 -32 0 -35
-3 -38 -30 -6 -71 -9 -75 -57 -75 -28 0 -45 5 -45 12 0 14 70 418 76 436 3 9
22 12 66 10 l63 -3 37 -205z m238 113 c8 -50 18 -94 20 -97 3 -3 12 34 19 82
8 48 16 93 18 100 3 8 27 12 69 12 l64 0 0 -230 0 -230 -45 0 -45 0 -1 128 -1
127 -15 -75 c-36 -191 -32 -180 -63 -180 -32 0 -29 -7 -56 150 -9 52 -18 97
-20 99 -2 2 -4 -53 -4 -122 l0 -127 -45 0 -45 0 0 223 c0 123 3 227 7 231 4 4
34 6 68 4 l60 -3 15 -92z m486 -135 l40 -228 -47 0 c-52 0 -50 -2 -62 90 -3
19 -57 26 -68 8 -5 -7 -9 -25 -9 -40 0 -49 -9 -58 -56 -58 -29 0 -44 4 -44 13
0 13 66 387 75 425 5 21 10 23 68 20 l62 -3 41 -227z m184 142 l0 -90 40 0 40
0 0 91 0 90 48 -3 47 -3 3 -227 2 -228 -50 0 -50 0 0 95 0 95 -40 0 -40 0 0
-95 0 -95 -45 0 -45 0 0 230 0 230 45 0 45 0 0 -90z m475 -142 l41 -228 -47 0
c-52 0 -50 -3 -62 90 -2 10 -14 15 -37 15 -32 0 -35 -3 -38 -30 -6 -71 -9 -75
-57 -75 -28 0 -45 5 -45 12 0 14 70 418 76 436 3 9 22 12 66 10 l63 -3 40
-227z m-2360 -308 c-3 -5 -25 -11 -48 -12 l-42 -1 45 -7 45 -7 -42 -1 c-31 -2
-43 -6 -43 -17 0 -8 -9 -15 -20 -15 -16 0 -20 7 -20 35 l0 35 66 0 c41 0 63
-4 59 -10z m177 -17 c15 -15 28 -30 28 -35 0 -10 -34 -11 -43 -1 -4 3 -23 6
-42 6 -19 0 -38 -3 -42 -6 -8 -9 -43 -9 -43 0 0 4 12 20 27 35 35 37 77 37
115 1z m223 17 c4 -6 -17 -10 -55 -10 -45 0 -60 -3 -57 -12 3 -9 23 -12 61
-11 54 2 73 -8 40 -21 -25 -10 -104 -7 -125 4 -19 10 -26 40 -12 53 10 11 141
8 148 -3z m185 0 c0 -5 -11 -10 -25 -10 -20 0 -25 -5 -25 -25 0 -18 -5 -25
-20 -25 -15 0 -20 7 -20 25 0 20 -5 25 -25 25 -14 0 -25 5 -25 10 0 6 30 10
70 10 40 0 70 -4 70 -10z m208 -17 c4 -31 -28 -45 -95 -41 -59 3 -82 20 -70
52 6 14 19 16 84 14 71 -3 78 -5 81 -25z m188 -10 c1 -26 -2 -33 -17 -33 -11
0 -19 5 -19 10 0 6 -16 10 -35 10 -19 0 -35 -4 -35 -10 0 -5 -9 -10 -20 -10
-16 0 -20 7 -20 35 l0 36 72 -3 72 -3 2 -32z m109 25 c19 -9 28 -9 37 0 7 7
23 12 38 12 25 0 25 -1 -7 -21 -18 -12 -33 -27 -33 -35 0 -8 -9 -14 -20 -14
-11 0 -20 6 -20 14 0 8 -15 23 -32 35 -29 18 -30 21 -11 21 12 0 34 -5 48 -12z
m406 5 c0 -5 2 -19 3 -31 3 -27 -19 -41 -37 -23 -6 6 -23 11 -37 11 -14 0 -31
-5 -37 -11 -21 -21 -40 -3 -35 30 l4 31 69 0 c38 0 69 -3 70 -7z m189 -28 c31
-32 32 -35 13 -35 -12 0 -24 4 -27 9 -6 9 -66 6 -103 -5 -30 -8 -29 4 4 38 37
39 71 36 113 -7z m220 25 c0 -5 -25 -10 -55 -10 -44 0 -55 -3 -55 -16 0 -14 8
-16 62 -10 55 7 60 6 49 -8 -14 -16 -102 -23 -135 -10 -16 6 -22 45 -9 57 10
11 143 8 143 -3z m90 -25 c0 -28 -4 -35 -20 -35 -16 0 -20 7 -20 35 0 28 4 35
20 35 16 0 20 -7 20 -35z m133 15 c14 -11 28 -20 31 -20 3 0 6 9 6 20 0 13 7
20 20 20 16 0 20 -7 20 -35 0 -32 -3 -35 -28 -35 -15 0 -44 11 -65 25 l-37 26
0 -26 c0 -41 -34 -29 -38 13 -3 30 -2 32 31 32 19 0 46 -9 60 -20z m274 -12
c4 -33 -17 -41 -92 -36 -51 3 -73 22 -62 52 6 14 19 16 79 14 69 -3 71 -4 75
-30z"/>
<path d="M1230 2800 c36 -11 52 -11 45 0 -3 6 -21 10 -38 9 -31 -1 -31 -1 -7
-9z"/>
<path d="M1577 1459 c4 -13 8 -18 11 -10 2 7 -1 18 -6 23 -8 8 -9 4 -5 -13z"/>
<path d="M586 808 c4 -6 7 -26 6 -44 -1 -18 3 -36 8 -39 6 -3 10 -18 10 -32
l0 -25 44 26 c25 14 49 26 55 26 23 0 9 -16 -39 -43 -55 -31 -67 -44 -52 -59
6 -6 27 1 59 21 28 17 55 31 62 31 24 0 9 -18 -34 -41 -43 -23 -57 -39 -35
-39 6 0 15 -11 20 -25 5 -14 18 -28 27 -32 10 -3 25 -12 35 -20 14 -13 17 -11
24 19 20 91 -9 186 -72 234 -36 28 -130 61 -118 42z"/>
<path d="M469 787 c-84 -45 -121 -131 -104 -242 6 -43 8 -45 23 -32 9 7 25 17
35 20 9 4 20 15 24 24 4 10 12 22 20 26 21 13 16 21 -32 46 -42 22 -58 41 -35
41 6 0 35 -14 64 -30 34 -20 57 -27 61 -20 10 15 -1 27 -55 57 -48 27 -62 43
-38 43 6 0 31 -11 55 -25 l43 -26 0 24 c0 12 6 29 12 35 7 7 13 28 13 47 0 43
-21 46 -86 12z"/>
<path d="M554 696 c-8 -22 3 -49 19 -43 6 2 12 14 12 27 0 27 -22 39 -31 16z"/>
<path d="M554 609 c-10 -17 13 -36 27 -22 12 12 4 33 -11 33 -5 0 -12 -5 -16
-11z"/>
<path d="M480 565 c-9 -11 -10 -19 -3 -26 13 -13 53 9 53 28 0 18 -35 16 -50
-2z"/>
<path d="M615 569 c-6 -9 21 -38 37 -39 14 0 19 21 8 35 -15 18 -36 19 -45 4z"/>
<path d="M557 544 c-4 -4 -7 -36 -7 -71 0 -35 -4 -63 -10 -63 -5 0 -10 24 -10
54 l0 54 -42 -5 c-24 -4 -45 -9 -48 -13 -3 -4 -16 -11 -28 -15 l-24 -7 24 -25
c81 -87 221 -89 310 -5 l28 25 -28 17 c-15 9 -46 19 -70 22 l-42 6 0 -54 c0
-77 -19 -67 -22 13 -3 61 -14 84 -31 67z"/>
<path d="M1316 679 c-2 -8 -7 -38 -11 -66 -5 -49 -4 -53 15 -53 20 0 21 4 14
63 -7 66 -11 78 -18 56z"/>
<path d="M2037 680 c-3 -8 -8 -39 -12 -67 -5 -49 -4 -53 15 -53 22 0 24 14 11
90 -4 25 -10 38 -14 30z"/>
<path d="M2697 683 c-2 -4 -8 -34 -11 -65 -7 -55 -6 -58 14 -58 20 0 21 3 14
63 -7 66 -9 73 -17 60z"/>
<path d="M555 270 c-3 -5 1 -10 10 -10 9 0 13 5 10 10 -3 6 -8 10 -10 10 -2 0
-7 -4 -10 -10z"/>
<path d="M1113 268 c2 -8 20 -13 42 -13 22 0 40 5 43 13 2 8 -10 12 -43 12
-33 0 -45 -4 -42 -12z"/>
<path d="M1338 273 c12 -2 30 -2 40 0 9 3 -1 5 -23 4 -22 0 -30 -2 -17 -4z"/>
<path d="M1848 273 c12 -2 32 -2 45 0 12 2 2 4 -23 4 -25 0 -35 -2 -22 -4z"/>
<path d="M2055 270 c-3 -5 3 -10 15 -10 12 0 18 5 15 10 -3 6 -10 10 -15 10
-5 0 -12 -4 -15 -10z"/>
<path d="M2732 268 c3 -7 22 -14 44 -15 36 -1 37 -1 9 6 l-30 8 30 5 c25 4 23
5 -13 7 -31 1 -42 -3 -40 -11z"/>
</g>
</svg>
