<?xml version="1.0" standalone="no"?>
<!DOCTYPE svg PUBLIC "-//W3C//DTD SVG 20010904//EN"
 "http://www.w3.org/TR/2001/REC-SVG-20010904/DTD/svg10.dtd">
<svg version="1.0" xmlns="http://www.w3.org/2000/svg"
 width="1111.000000pt" height="484.000000pt" viewBox="0 0 1111.000000 484.000000"
 preserveAspectRatio="xMidYMid meet">

<g transform="translate(0.000000,484.000000) scale(0.100000,-0.100000)"
fill="#000000" stroke="none">
<path d="M0 2415 l0 -2415 5555 0 5555 0 0 2415 0 2415 -5555 0 -5555 0 0
-2415z m5817 1979 c52 -39 73 -81 73 -148 0 -124 -60 -176 -202 -176 l-78 0 0
-90 0 -90 -65 0 -65 0 0 266 0 265 154 -3 c138 -3 158 -5 183 -24z m503 -34
l0 -60 -110 0 -110 0 0 -40 0 -39 103 -3 102 -3 3 -57 3 -58 -106 0 -105 0 0
-45 0 -45 110 0 111 0 -3 -57 -3 -58 -172 -3 -173 -2 0 265 0 265 175 0 175 0
0 -60z m393 46 c18 -7 42 -24 54 -37 61 -68 42 -217 -33 -251 -13 -6 -24 -16
-24 -22 0 -6 34 -53 75 -104 41 -51 75 -95 75 -97 0 -3 -36 -5 -79 -5 l-79 0
-73 100 c-41 54 -77 99 -81 100 -4 0 -9 -44 -10 -97 l-3 -98 -62 -3 -63 -3 0
266 0 265 135 0 c93 0 146 -4 168 -14z m565 -43 l-3 -58 -72 -3 -73 -3 0 -204
0 -205 -65 0 -65 0 0 205 0 204 -72 3 -73 3 -3 58 -3 57 216 0 216 0 -3 -57z
m296 15 c30 -82 156 -467 156 -478 0 -7 -23 -10 -67 -8 l-66 3 -15 43 -14 42
-82 0 -82 0 -14 -42 -15 -43 -67 -3 c-38 -2 -68 1 -68 6 0 4 37 113 81 242 45
129 84 245 86 258 5 20 11 22 78 22 l73 0 16 -42z m406 32 c0 -5 19 -64 42
-131 28 -83 44 -116 49 -106 5 8 27 67 50 131 l41 116 67 0 67 0 18 -127 c9
-71 23 -177 31 -238 8 -60 17 -123 20 -138 l5 -28 -68 3 -67 3 -14 133 c-8 72
-18 132 -21 132 -3 0 -29 -60 -56 -132 -49 -129 -52 -133 -80 -133 -28 0 -30
4 -79 138 -32 90 -52 131 -56 120 -3 -10 -11 -65 -18 -123 -18 -150 -12 -140
-87 -140 l-66 0 6 28 c6 29 76 487 76 496 0 3 32 6 70 6 39 0 70 -4 70 -10z
m598 -252 l-3 -263 -62 -3 -63 -3 0 266 0 265 65 0 65 0 -2 -262z m349 110
l108 -153 3 153 3 152 64 0 65 0 -2 -262 -3 -263 -65 0 -64 0 -116 154 -115
155 -3 -158 -3 -157 -62 3 -62 3 -3 263 -2 262 74 0 74 0 109 -152z m677 -106
c47 -141 86 -261 86 -265 0 -4 -30 -7 -67 -5 l-68 3 -13 43 -14 42 -83 0 -83
0 -14 -42 -15 -43 -66 -3 c-40 -2 -67 1 -67 7 0 5 34 110 76 233 42 123 81
238 87 256 l10 32 73 0 72 0 86 -258z m-3931 -819 c4 -203 7 -497 7 -655 l0
-288 -194 0 c-219 0 -199 -8 -211 86 l-6 51 -64 -42 c-136 -91 -358 -128 -540
-90 -145 30 -311 138 -372 242 -59 101 -79 238 -49 337 32 107 131 219 242
275 119 59 327 85 508 62 82 -10 112 -20 229 -79 4 -2 7 102 7 232 l0 236 218
0 219 0 6 -367z m-3531 277 l458 0 0 -120 0 -120 -370 0 -370 0 0 -120 0 -120
350 0 351 0 -3 -117 -3 -118 -347 -3 -348 -2 0 -130 0 -130 390 0 390 0 0
-120 0 -120 -620 0 -620 0 0 263 c0 144 3 421 7 616 l6 354 135 -7 c74 -3 341
-6 594 -6z m6983 -291 c210 -26 365 -90 468 -192 85 -84 110 -139 115 -248 9
-183 -84 -328 -264 -415 -122 -59 -185 -68 -469 -67 -279 0 -340 10 -472 75
-243 119 -328 410 -177 608 137 180 469 279 799 239z m-861 -8 c3 -5 3 -64 -1
-132 l-6 -124 -103 3 c-163 6 -249 -29 -294 -119 -18 -35 -20 -60 -20 -294 l0
-255 -224 0 -225 0 -3 453 c-2 248 -1 454 0 457 5 7 374 1 381 -6 3 -3 7 -36
9 -75 2 -38 6 -69 8 -69 2 0 21 19 43 43 46 49 123 91 208 111 65 16 219 21
227 7z m-4499 -16 c106 -22 183 -65 253 -139 88 -94 94 -119 99 -366 2 -113 4
-249 6 -303 l2 -97 -227 0 -228 0 -1 133 c0 72 -4 201 -8 285 -8 173 -15 190
-92 230 -38 20 -55 23 -131 20 -80 -4 -91 -7 -137 -39 -81 -55 -85 -69 -89
-371 l-4 -258 -218 0 -218 0 -6 403 c-3 221 -9 423 -12 450 l-6 47 206 0 206
0 0 -66 0 -66 49 36 c64 47 145 84 223 101 84 18 247 18 333 0z m2545 -258 c0
-253 1 -264 23 -307 71 -142 343 -139 408 3 17 38 19 68 19 305 l0 262 219 0
218 0 6 -407 c4 -225 10 -429 13 -455 l7 -48 -196 0 c-178 0 -196 2 -201 18
-2 9 -10 43 -16 76 l-12 58 -31 -30 c-115 -108 -315 -153 -528 -117 -146 24
-203 48 -264 109 -53 53 -88 116 -105 188 -5 24 -10 170 -10 326 l0 282 225 0
225 0 0 -263z m-2610 -2069 l0 -533 -25 0 -25 0 0 533 0 532 25 0 25 0 0 -532z
m-1891 102 c79 -143 146 -260 150 -260 4 0 72 117 152 260 l144 260 129 0
c118 0 128 -1 121 -17 -3 -10 -79 -146 -169 -303 -89 -157 -177 -311 -195
-342 l-32 -58 -149 0 -148 0 -105 183 c-57 100 -144 252 -192 337 -48 85 -94
165 -101 178 l-14 22 132 0 133 0 144 -260z m1599 239 c26 -13 54 -38 70 -62
25 -38 27 -48 27 -147 0 -117 -10 -145 -66 -179 l-30 -19 34 -21 c47 -29 60
-62 65 -173 l4 -98 -111 0 -111 0 0 75 c0 67 -3 79 -25 100 -24 25 -24 25
-240 25 l-215 0 0 -100 0 -100 -110 0 -110 0 0 360 0 360 387 0 c374 0 388 -1
431 -21z m1401 -181 l-101 -203 56 -3 c31 -2 56 -6 55 -10 0 -4 -17 -41 -37
-82 l-38 -75 -60 -3 -61 -3 -33 -69 -34 -70 -118 0 c-65 0 -118 2 -118 5 0 3
14 32 30 65 17 33 30 62 30 65 0 3 -135 5 -300 5 -165 0 -300 2 -300 5 0 2 27
60 61 127 l61 123 351 162 352 161 152 1 153 1 -101 -202z m1098 182 c43 -26
53 -75 27 -139 l-20 -46 -112 -3 c-105 -2 -112 -1 -112 17 0 27 -25 31 -205
30 -193 0 -221 -7 -253 -67 -13 -24 -22 -45 -20 -47 2 -3 20 0 39 5 18 6 130
10 248 10 198 0 218 -2 258 -21 83 -40 94 -108 34 -223 -53 -103 -90 -147
-153 -182 l-53 -29 -300 -3 c-189 -2 -313 0 -335 7 -20 6 -49 24 -65 41 -24
26 -30 40 -33 93 -4 61 -2 65 87 245 92 184 134 244 198 283 71 44 102 48 428
48 290 1 312 0 342 -19z m533 -403 c14 -7 26 -22 28 -34 5 -35 -28 -93 -68
-119 -37 -24 -37 -25 -33 -84 l4 -60 -45 0 -46 0 0 55 0 55 -38 0 c-36 0 -39
-3 -65 -55 -27 -54 -27 -55 -71 -55 l-45 0 77 155 76 155 101 0 c60 0 110 -5
125 -13z m326 -19 c-8 -46 -36 -257 -36 -268 0 -6 -20 -10 -45 -10 -44 0 -44
0 -38 30 l6 30 -61 0 c-57 0 -63 -2 -84 -30 -18 -25 -28 -30 -66 -30 -24 0
-42 4 -40 8 2 4 59 74 128 154 l125 147 58 0 58 1 -5 -32z m392 16 c14 -9 22
-26 22 -44 0 -50 -9 -60 -54 -60 -40 0 -41 1 -41 33 0 28 -3 32 -30 35 -19 2
-43 -6 -65 -20 -39 -26 -91 -120 -87 -158 2 -22 7 -25 45 -28 39 -3 47 1 76
33 29 31 39 36 71 33 l37 -3 -24 -35 c-75 -111 -298 -121 -298 -12 0 39 52
142 91 179 19 18 50 39 69 47 47 21 159 21 188 0z m212 6 c0 -5 -33 -75 -72
-155 l-73 -145 -42 0 -43 0 48 98 c27 53 61 123 77 155 26 55 29 57 66 57 22
0 39 -4 39 -10z m180 -42 c6 -29 14 -71 18 -93 l8 -40 45 90 c43 88 45 90 82
93 20 2 37 -1 37 -7 0 -5 -32 -75 -72 -155 l-72 -146 -37 0 c-42 0 -42 0 -60
98 -7 39 -16 72 -19 72 -3 0 -25 -38 -48 -85 l-42 -85 -40 0 -41 0 15 28 c7
15 41 84 74 155 l61 127 40 0 40 0 11 -52z m528 36 c18 -12 22 -24 20 -52 -3
-36 -4 -37 -47 -40 -36 -3 -43 -1 -38 12 9 22 -19 46 -52 46 -47 0 -93 -39
-128 -109 -39 -76 -33 -101 23 -101 30 0 94 23 94 34 0 3 3 12 7 21 5 15 1 16
-26 10 -24 -5 -32 -3 -37 10 -11 29 14 40 96 41 44 1 80 0 80 -2 0 -3 -18 -40
-40 -84 -34 -68 -44 -80 -65 -80 -14 0 -25 4 -25 9 0 5 -19 2 -42 -6 -52 -18
-132 -11 -159 13 -59 53 26 225 136 275 52 24 171 26 203 3z m512 11 c0 -2 -5
-16 -12 -30 -10 -22 -17 -25 -64 -25 l-53 0 -60 -125 -60 -125 -41 0 c-22 0
-40 5 -40 10 0 6 25 60 55 120 30 60 55 112 55 115 0 3 -20 5 -45 5 -46 0 -53
7 -35 41 10 17 23 19 155 19 80 0 145 -2 145 -5z m320 0 c0 -2 -5 -16 -12 -30
-11 -24 -15 -25 -99 -25 -88 0 -89 0 -104 -30 -8 -16 -15 -31 -15 -35 0 -3 34
-5 75 -5 l75 0 -12 -25 c-11 -24 -16 -25 -89 -25 -77 0 -79 -1 -94 -30 -8 -16
-15 -34 -15 -40 0 -6 32 -10 85 -10 l85 0 -12 -25 c-11 -25 -12 -25 -145 -25
-74 0 -132 3 -130 8 3 4 37 73 76 155 l70 147 131 0 c71 0 130 -2 130 -5z
m263 -15 c-1 -8 -9 -77 -19 -152 l-17 -138 -44 0 c-44 0 -45 0 -38 30 l7 30
-60 0 c-55 0 -63 -3 -85 -30 -21 -24 -33 -30 -66 -30 -23 0 -41 3 -41 6 0 7
166 200 224 262 39 41 44 43 91 40 37 -2 50 -7 48 -18z m287 8 c-1 -7 -9 -53
-19 -103 -10 -49 -18 -91 -17 -92 1 -1 39 45 84 102 l82 105 61 0 c33 0 59 -4
57 -9 -1 -5 -34 -74 -73 -155 l-70 -146 -43 0 -42 0 30 63 c17 34 40 79 51
100 11 20 18 37 16 37 -2 0 -40 -45 -83 -100 -75 -95 -81 -100 -116 -100 -21
0 -38 3 -38 8 0 4 7 42 15 85 8 43 15 84 14 90 0 7 -22 -32 -50 -85 l-49 -98
-40 0 -40 0 19 38 c10 20 44 90 75 155 l55 117 61 0 c41 0 60 -4 60 -12z"/>
<path d="M5610 4250 l0 -60 43 0 c61 0 83 9 96 36 15 34 14 41 -9 64 -15 15
-33 20 -75 20 l-55 0 0 -60z"/>
<path d="M6540 4250 l0 -60 43 0 c64 0 86 9 94 39 16 58 -8 81 -84 81 l-53 0
0 -60z"/>
<path d="M7468 4180 c-10 -32 -18 -64 -18 -70 0 -5 18 -10 40 -10 22 0 40 2
40 4 0 7 -41 136 -43 136 -1 0 -10 -27 -19 -60z"/>
<path d="M9426 4183 c-10 -32 -21 -64 -23 -70 -4 -9 8 -13 42 -13 52 0 50 -9
16 93 l-17 49 -18 -59z"/>
<path d="M4861 3094 c-134 -48 -211 -163 -182 -271 19 -68 65 -119 151 -164
38 -19 60 -23 140 -24 83 0 102 3 145 26 94 48 141 160 116 272 -27 121 -93
170 -236 174 -64 2 -103 -1 -134 -13z"/>
<path d="M8920 3131 c-61 -13 -109 -42 -155 -93 -50 -55 -65 -97 -65 -178 1
-224 298 -343 473 -190 152 134 110 364 -80 446 -40 17 -128 25 -173 15z"/>
<path d="M2817 1163 c-4 -3 -7 -42 -7 -85 l0 -78 215 0 c216 0 216 0 240 25
44 43 30 114 -26 134 -34 12 -411 16 -422 4z"/>
<path d="M4350 1047 c-113 -51 -214 -98 -225 -105 -16 -9 17 -11 160 -12 l180
0 53 105 c28 58 49 105 44 105 -4 0 -99 -42 -212 -93z"/>
<path d="M5142 904 c-30 -21 -54 -70 -47 -94 6 -19 17 -20 216 -20 l210 0 25
27 c27 29 39 65 30 88 -8 23 -401 22 -434 -1z"/>
<path d="M6292 872 c-21 -3 -52 -51 -52 -80 0 -12 91 -3 108 10 53 45 23 82
-56 70z"/>
<path d="M6628 800 c-27 -32 -48 -61 -48 -64 0 -10 75 5 82 17 7 12 21 97 16
102 -2 1 -24 -24 -50 -55z"/>
<path d="M9037 800 c-49 -61 -48 -71 3 -67 19 2 27 10 37 47 24 80 12 85 -40
20z"/>
</g>
</svg>
