<?xml version="1.0" standalone="no"?>
<!DOCTYPE svg PUBLIC "-//W3C//DTD SVG 20010904//EN"
 "http://www.w3.org/TR/2001/REC-SVG-20010904/DTD/svg10.dtd">
<svg version="1.0" xmlns="http://www.w3.org/2000/svg"
 width="1000.000000pt" height="563.000000pt" viewBox="0 0 1000.000000 563.000000"
 preserveAspectRatio="xMidYMid meet">

<g transform="translate(0.000000,563.000000) scale(0.100000,-0.100000)"
fill="#000000" stroke="none">
<path d="M0 2815 l0 -2815 5000 0 5000 0 0 2815 0 2815 -5000 0 -5000 0 0
-2815z m9940 0 l0 -2755 -4940 0 -4940 0 0 2755 0 2755 4940 0 4940 0 0 -2755z"/>
<path d="M2909 5080 c-47 -25 -86 -71 -99 -118 -6 -24 -10 -319 -10 -840 0
-760 1 -803 18 -798 93 28 1490 416 1497 416 3 0 4 -51 3 -112 l-3 -113 -80
-21 c-44 -12 -269 -74 -500 -137 -231 -64 -528 -145 -660 -182 -132 -36 -248
-68 -258 -71 -16 -5 -17 -68 -15 -1228 l3 -1223 27 -36 c16 -19 43 -46 60 -59
l33 -23 2060 -3 2060 -2 45 22 c26 14 57 41 75 66 l30 44 3 1654 c1 910 -2
1654 -6 1654 -5 0 -289 -68 -633 -151 -343 -82 -866 -208 -1163 -280 -296 -71
-640 -154 -763 -184 -124 -30 -231 -55 -239 -55 -10 0 -14 15 -14 54 0 43 4
56 18 60 9 3 134 33 277 66 143 34 307 72 365 86 58 14 218 52 355 84 138 32
537 126 888 209 351 83 640 151 642 151 3 0 5 105 5 234 l0 235 53 15 c28 8
70 19 92 25 22 5 59 15 82 21 l42 11 -5 211 c-5 209 -5 211 -32 251 -15 22
-47 51 -71 64 l-44 23 -2051 0 c-2002 -1 -2052 -1 -2087 -20z m1218 -364 c36
-17 60 -38 80 -67 26 -39 28 -50 31 -168 3 -118 2 -129 -20 -171 -14 -25 -44
-58 -67 -75 -39 -27 -50 -30 -124 -30 -45 0 -99 4 -119 9 l-38 8 0 -116 c0
-114 0 -117 -25 -128 -21 -9 -28 -8 -45 7 -19 17 -20 31 -20 302 0 155 -3 283
-7 283 -5 -1 -33 -14 -63 -30 -48 -26 -57 -28 -75 -16 -11 7 -21 22 -23 34 -4
24 24 45 128 97 60 30 79 36 100 28 l25 -8 5 -180 5 -180 29 -13 c46 -23 136
-27 179 -9 52 22 67 62 67 178 0 148 -38 193 -158 187 -66 -3 -82 4 -82 37 0
33 25 44 100 45 48 0 79 -6 117 -24z m472 13 c22 -8 31 -17 31 -34 0 -35 -20
-44 -96 -42 -107 3 -104 9 -104 -212 0 -198 -7 -233 -47 -239 -15 -2 -27 5
-39 23 -15 23 -16 48 -12 220 6 218 13 242 78 276 40 22 138 26 189 8z m185
-5 c23 -23 20 -51 -9 -70 -23 -15 -27 -15 -50 0 -14 9 -25 25 -25 36 0 24 26
50 50 50 10 0 26 -7 34 -16z m455 -17 c33 -22 41 -24 51 -12 30 37 156 56 230
35 45 -12 97 -65 110 -111 6 -18 10 -113 10 -211 0 -147 -3 -179 -16 -192 -20
-20 -33 -20 -56 1 -16 14 -18 34 -18 180 0 176 -8 217 -51 247 -32 22 -92 20
-139 -4 l-40 -20 0 -189 c0 -170 -2 -191 -19 -212 -16 -21 -22 -22 -45 -11
l-26 12 0 172 c0 190 -9 229 -60 256 -32 17 -123 9 -156 -13 l-25 -16 2 -195
c1 -197 -3 -224 -37 -224 -8 0 -23 9 -35 21 -19 19 -20 29 -17 234 3 243 -2
226 93 265 73 30 189 24 244 -13z m838 7 c82 -40 93 -73 93 -268 0 -86 -4
-165 -10 -175 -27 -51 -213 -87 -309 -61 -120 32 -167 182 -84 262 43 41 94
58 176 58 75 0 97 -9 97 -41 0 -26 -12 -30 -89 -32 -53 -2 -76 -7 -98 -23 -47
-35 -44 -113 7 -139 37 -19 140 -20 186 0 l35 15 -3 150 c-3 136 -5 151 -24
171 -30 29 -90 34 -180 14 l-78 -17 -18 22 c-17 22 -18 24 -2 42 25 27 99 47
180 47 56 1 80 -4 121 -25z m-1301 -118 c17 -13 19 -30 22 -183 3 -155 2 -171
-16 -193 -17 -22 -23 -23 -46 -12 l-26 12 0 184 c0 166 2 186 18 195 23 14 25
13 48 -3z m-816 -1691 c35 -18 60 -62 60 -106 0 -22 -10 -41 -33 -64 -39 -39
-91 -49 -229 -43 l-87 3 -3 -70 -3 -70 -47 -3 -48 -3 0 185 0 186 180 0 c142
0 187 -3 210 -15z m494 -16 c39 -34 55 -84 37 -118 -9 -16 -8 -32 4 -69 9 -27
15 -71 13 -98 l-3 -49 -50 0 -50 0 -3 68 -3 67 -124 0 -125 0 0 -71 0 -70 -47
3 -48 3 -3 183 -2 182 184 0 185 0 35 -31z m386 16 c22 -11 47 -51 109 -174
45 -88 81 -165 81 -171 0 -7 -19 -10 -52 -8 -50 3 -54 5 -76 46 l-23 42 -103
0 -102 0 -22 -45 -22 -45 -55 0 c-30 0 -55 2 -55 5 0 3 36 77 79 164 48 94 91
167 107 180 32 25 92 28 134 6z m638 -5 c53 -32 64 -73 60 -219 l-3 -126 -50
0 -50 0 -2 120 c-1 66 -2 128 -3 138 0 14 -9 17 -45 17 l-45 0 0 -141 0 -140
-47 3 -48 3 -3 138 -3 137 -44 0 -44 0 -3 -137 -3 -138 -47 -3 -48 -3 0 185 0
186 198 0 c180 0 200 -2 230 -20z m385 8 c33 -17 41 -30 123 -192 47 -92 72
-152 66 -158 -5 -5 -29 -8 -53 -6 -40 3 -46 7 -67 46 l-23 42 -103 0 -102 0
-22 -45 -22 -45 -55 0 c-30 0 -55 2 -55 5 0 3 36 77 79 164 48 94 91 167 107
180 30 24 92 28 127 9z m605 -30 l-3 -43 -140 -5 -140 -5 -3 -84 c-2 -61 1
-87 10 -92 7 -5 73 -9 146 -9 l133 0 -3 -42 -3 -43 -105 -3 c-158 -5 -203 3
-245 42 l-35 33 0 102 c0 177 17 190 238 191 l153 0 -3 -42z m-8 -366 c0 -14
-170 -90 -260 -116 -47 -13 -128 -31 -181 -40 -105 -18 -354 -36 -421 -31 -24
2 -106 6 -183 10 -119 4 -194 13 -357 40 -55 9 -26 -15 32 -27 138 -28 37 -33
-762 -36 l-788 -3 0 100 0 101 1173 -1 1172 -1 -63 -29 c-68 -32 -208 -75
-287 -88 l-50 -9 53 -1 c123 -3 355 47 481 103 l76 34 183 1 c100 1 182 -3
182 -7z m-2836 -830 c90 -42 149 -100 193 -189 34 -68 37 -82 37 -161 1 -102
-19 -167 -74 -239 -182 -241 -545 -205 -674 67 -28 59 -31 74 -31 165 0 87 4
107 27 157 29 63 101 146 155 179 108 67 252 75 367 21z m501 -157 c22 -80 42
-145 45 -145 3 0 23 65 45 145 l40 145 73 0 c40 0 71 -3 69 -7 -3 -5 -37 -107
-76 -229 l-71 -221 0 -117 0 -116 -80 0 -80 0 0 117 c0 115 -1 118 -61 306
-33 104 -67 207 -74 228 l-14 39 72 0 73 0 39 -145z m579 118 c8 -39 116 -650
116 -657 0 -3 -31 -6 -69 -6 -78 0 -74 -5 -86 103 l-7 57 -53 0 -53 0 -12 -80
-12 -80 -69 0 c-47 0 -69 4 -69 12 0 12 106 612 115 656 5 21 10 22 99 22 l94
0 6 -27z m415 -115 c13 -79 25 -150 28 -158 3 -8 18 55 34 140 15 85 28 156
28 158 1 1 44 2 96 2 l95 0 0 -345 0 -345 -65 0 -65 0 -2 198 -3 197 -34 -198
-34 -198 -46 3 -46 3 -27 160 c-45 261 -45 262 -47 38 l-1 -203 -65 0 -65 0 0
345 0 345 99 0 98 0 22 -142z m735 -190 c32 -183 61 -339 64 -345 3 -10 -15
-13 -71 -13 l-75 0 -7 68 c-4 38 -10 74 -14 81 -5 8 -26 11 -57 9 l-49 -3 -10
-75 -10 -75 -73 -3 c-67 -3 -73 -1 -69 15 3 10 32 165 63 346 l58 327 95 0 96
0 59 -332z m288 196 l3 -136 58 -2 57 -1 0 138 0 137 70 0 70 0 0 -345 0 -345
-70 0 -70 0 0 145 0 145 -60 0 -60 0 0 -145 0 -145 -70 0 -70 0 0 345 0 345
70 0 69 0 3 -136z m658 128 c0 -9 106 -605 116 -654 l6 -28 -70 0 c-80 0 -77
-3 -87 93 l-7 67 -53 0 c-59 0 -58 2 -70 -102 l-7 -58 -72 0 -72 0 58 333 c33
182 61 338 63 345 5 14 195 18 195 4z m-3530 -802 c0 -6 -28 -10 -65 -10 -37
0 -65 -4 -65 -10 0 -6 29 -10 66 -10 48 0 65 -3 61 -12 -2 -9 -21 -12 -61 -10
-51 4 -58 2 -63 -17 -4 -15 -13 -21 -34 -21 -28 0 -29 2 -29 50 l0 50 95 0
c57 0 95 -4 95 -10z m275 -40 l49 -50 -36 0 c-20 0 -40 5 -43 10 -3 6 -30 10
-60 10 -30 0 -57 -4 -60 -10 -3 -5 -23 -10 -43 -10 l-36 0 49 50 c43 44 54 50
90 50 36 0 47 -6 90 -50z m334 36 c19 -23 -18 -30 -60 -12 -9 4 -36 6 -60 4
-38 -3 -44 -6 -47 -27 l-4 -24 91 6 c89 7 103 3 79 -21 -15 -15 -181 -16 -209
-2 -22 12 -26 59 -7 78 18 18 202 16 217 -2z m281 5 c0 -6 -17 -11 -37 -13
-36 -3 -38 -5 -38 -38 -1 -30 -4 -35 -28 -38 -25 -3 -27 -1 -27 37 l0 41 -40
0 c-22 0 -40 5 -40 10 0 6 42 10 105 10 59 0 105 -4 105 -9z m310 -11 c12 -22
4 -60 -14 -72 -19 -13 -201 -9 -214 4 -13 13 -17 70 -5 81 3 4 55 7 114 7 99
0 109 -2 119 -20z m298 -7 c2 -14 -2 -23 -9 -23 -10 0 -10 -3 -1 -12 7 -7 12
-18 12 -25 0 -18 -56 -17 -64 2 -8 22 -106 21 -106 -1 0 -11 -8 -14 -27 -12
-26 3 -28 7 -31 51 l-3 48 113 -3 c109 -3 113 -4 116 -25z m156 8 c29 -20 30
-20 57 0 15 10 42 19 61 19 l33 0 -47 -31 c-29 -19 -48 -39 -48 -50 0 -14 -7
-19 -30 -19 -23 0 -30 4 -30 20 0 13 -16 31 -47 50 l-47 30 35 0 c18 0 47 -9
63 -19z m624 -8 c2 -14 -2 -23 -9 -23 -10 0 -10 -3 -1 -12 7 -7 12 -18 12 -25
0 -18 -56 -17 -64 2 -4 10 -20 15 -51 15 -31 0 -47 -5 -51 -15 -4 -8 -17 -15
-30 -15 -22 0 -24 4 -24 50 l0 51 108 -3 c102 -3 107 -4 110 -25z m287 -23
l49 -50 -36 0 c-20 0 -40 5 -43 10 -3 6 -30 10 -60 10 -30 0 -57 -4 -60 -10
-3 -5 -23 -10 -43 -10 l-36 0 49 50 c43 44 54 50 90 50 36 0 47 -6 90 -50z
m335 35 c7 -8 10 -15 6 -16 -20 -3 -53 -1 -67 5 -9 4 -36 6 -60 4 -38 -3 -44
-6 -47 -27 l-4 -24 91 6 c89 7 103 3 79 -21 -15 -15 -181 -16 -209 -2 -22 12
-26 59 -7 78 19 19 202 16 218 -3z m138 -32 c-3 -44 -5 -48 -30 -51 -27 -3
-28 -2 -28 47 0 50 1 51 31 51 30 0 30 -1 27 -47z m200 17 c23 -16 44 -30 47
-30 3 0 5 14 5 30 0 27 3 30 30 30 29 0 30 -1 30 -50 l0 -50 -43 0 c-32 0 -54
8 -92 36 l-50 35 -3 -35 c-3 -32 -6 -36 -33 -36 -28 0 -29 1 -29 50 l0 50 48
0 c39 0 58 -6 90 -30z m412 15 c11 -13 2 -15 -76 -13 -86 3 -89 2 -92 -19 -3
-22 0 -23 60 -21 42 1 50 3 26 5 -62 7 -43 23 27 23 58 0 65 -2 65 -20 0 -30
-31 -40 -120 -40 -96 0 -120 10 -120 48 0 45 15 52 121 52 74 0 99 -4 109 -15z"/>
<path d="M3670 2805 l0 -25 113 0 c117 0 144 7 134 34 -5 13 -26 16 -127 16
l-120 0 0 -25z"/>
<path d="M4150 2805 l0 -25 113 0 c117 0 144 7 134 34 -5 13 -26 16 -127 16
l-120 0 0 -25z"/>
<path d="M4750 2788 c-11 -18 -20 -36 -20 -40 0 -5 22 -8 50 -8 l50 0 -12 28
c-27 62 -40 66 -68 20z"/>
<path d="M5780 2788 c-11 -18 -20 -36 -20 -40 0 -5 22 -8 50 -8 l49 0 -13 31
c-21 50 -42 56 -66 17z"/>
<path d="M3643 2493 c32 -2 81 -2 110 0 29 2 3 3 -58 3 -60 0 -84 -1 -52 -3z"/>
<path d="M4233 2493 c26 -2 68 -2 95 0 26 2 4 3 -48 3 -52 0 -74 -1 -47 -3z"/>
<path d="M4408 2493 c6 -2 18 -2 25 0 6 3 1 5 -13 5 -14 0 -19 -2 -12 -5z"/>
<path d="M4543 2493 c20 -2 54 -2 75 0 20 2 3 4 -38 4 -41 0 -58 -2 -37 -4z"/>
<path d="M4473 2400 c0 -47 2 -66 4 -42 2 23 2 61 0 85 -2 23 -4 4 -4 -43z"/>
<path d="M4723 2410 c0 -25 2 -35 4 -22 2 12 2 32 0 45 -2 12 -4 2 -4 -23z"/>
<path d="M3673 2433 c20 -2 54 -2 75 0 20 2 3 4 -38 4 -41 0 -58 -2 -37 -4z"/>
<path d="M4090 2420 c6 -11 13 -20 16 -20 2 0 0 9 -6 20 -6 11 -13 20 -16 20
-2 0 0 -9 6 -20z"/>
<path d="M4620 2392 l5 -47 3 39 c2 21 0 42 -5 47 -4 4 -6 -13 -3 -39z"/>
<path d="M4802 2415 c0 -16 2 -22 5 -12 2 9 2 23 0 30 -3 6 -5 -1 -5 -18z"/>
<path d="M4863 2433 c15 -2 39 -2 55 0 15 2 2 4 -28 4 -30 0 -43 -2 -27 -4z"/>
<path d="M3985 2421 c-3 -6 3 -9 14 -8 11 0 17 5 15 9 -7 11 -22 10 -29 -1z"/>
<path d="M3853 2367 c0 -15 0 -27 1 -25 1 2 8 12 16 22 8 11 10 17 3 13 -6 -4
-13 -1 -16 5 -2 7 -4 0 -4 -15z"/>
<path d="M3648 2373 c7 -3 16 -2 19 1 4 3 -2 6 -13 5 -11 0 -14 -3 -6 -6z"/>
<path d="M3772 2360 c0 -14 2 -19 5 -12 2 6 2 18 0 25 -3 6 -5 1 -5 -13z"/>
<path d="M4137 2350 c9 -16 21 -30 25 -30 5 0 -1 14 -14 30 -12 17 -23 30 -25
30 -2 0 4 -13 14 -30z"/>
<path d="M4853 2373 c9 -2 25 -2 35 0 9 3 1 5 -18 5 -19 0 -27 -2 -17 -5z"/>
<path d="M5278 2363 c7 -3 16 -2 19 1 4 3 -2 6 -13 5 -11 0 -14 -3 -6 -6z"/>
<path d="M4040 2356 c0 -2 7 -9 15 -16 13 -11 14 -10 9 4 -5 14 -24 23 -24 12z"/>
<path d="M3460 1705 c0 -5 5 -17 10 -25 5 -8 10 -10 10 -5 0 6 -5 17 -10 25
-5 8 -10 11 -10 5z"/>
<path d="M3440 1662 c0 -7 -9 -12 -20 -12 -39 0 -129 -42 -172 -79 -69 -61
-101 -130 -106 -226 -3 -54 1 -94 11 -122 13 -39 13 -43 -4 -59 -11 -9 -19
-21 -19 -25 0 -5 21 14 46 41 25 27 49 49 53 48 21 -2 33 5 43 30 7 15 23 36
37 48 l25 21 -72 42 c-50 29 -70 46 -66 56 4 8 8 15 9 15 2 0 38 -20 80 -46
81 -47 108 -52 113 -19 2 16 -15 30 -78 65 -74 41 -90 57 -74 72 3 4 37 -11
74 -33 38 -21 72 -39 75 -39 3 0 5 11 5 24 0 13 9 35 21 49 15 20 18 35 14 59
-4 18 -1 46 5 62 6 16 8 31 5 34 -3 3 -5 0 -5 -6z"/>
<path d="M3480 1656 c0 -2 5 -17 11 -34 7 -21 7 -37 1 -49 -8 -13 -4 -28 15
-60 14 -24 22 -50 19 -58 -9 -24 15 -17 84 25 45 27 66 36 71 28 11 -18 5 -23
-76 -69 -59 -34 -75 -48 -75 -66 0 -34 24 -29 110 21 41 24 78 42 83 39 19
-12 1 -31 -63 -68 l-71 -39 31 -24 c16 -13 30 -30 30 -37 0 -20 30 -47 46 -41
13 5 84 -68 84 -86 0 -4 5 -8 11 -8 6 0 1 13 -10 29 -20 27 -20 31 -5 75 46
135 -32 319 -161 380 -36 17 -135 48 -135 42z"/>
<path d="M3444 1487 c-3 -8 -4 -30 -2 -49 2 -25 8 -33 23 -33 17 0 20 7 20 45
0 35 -4 45 -18 48 -9 2 -20 -3 -23 -11z"/>
<path d="M3453 1353 c-7 -3 -13 -15 -13 -28 0 -24 16 -35 38 -28 6 3 12 13 12
23 0 21 -20 39 -37 33z"/>
<path d="M3338 1284 c-31 -16 -36 -35 -14 -53 20 -17 77 17 74 44 -4 25 -25
29 -60 9z"/>
<path d="M3537 1293 c-16 -15 -5 -40 24 -57 29 -17 32 -17 47 -2 16 16 15 19
-11 42 -28 24 -48 30 -60 17z"/>
<path d="M3445 1238 c-2 -7 -6 -53 -7 -103 -2 -72 -6 -90 -18 -90 -12 0 -16
17 -18 83 -3 75 -5 83 -20 76 -9 -4 -36 -8 -60 -9 -30 0 -48 -6 -57 -18 -7
-10 -29 -21 -50 -24 l-36 -6 41 -42 c23 -24 65 -56 94 -72 46 -25 60 -28 146
-28 113 0 168 22 239 94 l43 45 -31 9 c-18 4 -41 17 -51 27 -16 16 -28 19 -59
14 -24 -4 -41 -2 -45 5 -4 6 -13 11 -19 11 -8 0 -12 -25 -12 -82 0 -67 -3 -83
-15 -83 -12 0 -16 20 -20 100 -4 85 -8 100 -23 103 -9 2 -19 -2 -22 -10z"/>
<path d="M4601 1485 c-1 -5 -8 -53 -16 -105 -8 -52 -15 -98 -15 -102 0 -5 15
-8 34 -8 34 0 35 1 30 33 -17 107 -32 191 -33 182z"/>
<path d="M5682 1393 c-16 -128 -17 -123 18 -123 17 0 30 5 30 11 0 32 -24 195
-30 202 -3 4 -11 -37 -18 -90z"/>
<path d="M6697 1470 c-11 -46 -28 -192 -24 -197 3 -2 18 -3 34 -1 l28 3 -16
110 c-11 72 -18 101 -22 85z"/>
<path d="M3437 834 c-14 -14 -6 -24 19 -24 16 0 24 5 22 13 -5 14 -31 21 -41
11z"/>
<path d="M4284 835 c-11 -27 10 -36 72 -33 51 3 59 6 59 23 0 18 -8 20 -63 23
-50 2 -63 0 -68 -13z"/>
<path d="M4603 838 c2 -8 22 -13 52 -13 30 0 50 5 53 13 3 9 -12 12 -53 12
-41 0 -56 -3 -52 -12z"/>
<path d="M5387 844 c-13 -14 6 -24 43 -24 46 0 72 9 64 21 -6 10 -97 12 -107
3z"/>
<path d="M5727 834 c-14 -14 -6 -24 19 -24 16 0 24 5 22 13 -5 14 -31 21 -41
11z"/>
</g>
</svg>
