<?xml version="1.0" standalone="no"?>
<!DOCTYPE svg PUBLIC "-//W3C//DTD SVG 20010904//EN"
 "http://www.w3.org/TR/2001/REC-SVG-20010904/DTD/svg10.dtd">
<svg version="1.0" xmlns="http://www.w3.org/2000/svg"
 width="277.000000pt" height="358.000000pt" viewBox="0 0 277.000000 358.000000"
 preserveAspectRatio="xMidYMid meet">

<g transform="translate(0.000000,358.000000) scale(0.100000,-0.100000)"
fill="#000000" stroke="none">
<path d="M0 1790 l0 -1790 1380 0 1380 0 0 1790 0 1790 -1380 0 -1380 0 0
-1790z m1570 1623 c36 -16 84 -48 107 -71 40 -39 43 -40 73 -29 27 10 36 9 68
-10 42 -24 161 -83 237 -117 28 -13 89 -42 136 -66 81 -40 119 -47 119 -20 0
6 -18 30 -40 54 -49 53 -52 86 -11 115 16 12 35 21 43 21 8 0 23 6 34 14 45
33 62 -47 19 -90 l-25 -25 20 -27 c11 -15 22 -41 26 -58 8 -41 -33 -91 -82
-100 -29 -5 -34 -10 -34 -35 0 -19 5 -29 15 -29 8 0 22 -11 31 -25 9 -14 26
-25 38 -25 35 0 88 -62 84 -96 -3 -27 -7 -29 -50 -32 -26 -2 -58 3 -70 10 -13
7 -27 11 -31 10 -5 -1 -23 7 -42 18 -18 11 -49 20 -69 20 -51 0 -92 24 -104
60 l-11 30 -86 0 c-52 0 -84 -4 -80 -10 3 -5 12 -7 20 -4 7 3 23 1 34 -5 25
-14 19 -35 -25 -80 -30 -30 -38 -33 -76 -29 -24 3 -61 14 -83 24 l-40 19 -33
-37 c-19 -21 -62 -52 -97 -69 -151 -74 -322 -50 -441 63 -43 40 -56 47 -71 39
-36 -19 -104 -41 -128 -41 -14 0 -34 9 -45 20 -11 11 -24 20 -30 20 -13 0 -42
58 -35 70 3 6 21 10 40 10 19 0 37 5 40 10 4 7 -19 8 -66 5 -67 -4 -75 -7 -98
-36 -29 -38 -76 -59 -113 -52 -18 3 -37 -2 -57 -16 -16 -12 -38 -21 -49 -21
-11 0 -25 -7 -32 -15 -14 -17 -96 -21 -119 -6 -12 8 -13 16 -3 48 14 45 66 85
99 77 16 -4 23 0 28 15 4 14 18 24 37 28 24 5 29 10 24 27 -3 12 -6 26 -6 31
0 6 -14 10 -31 11 -87 3 -131 96 -75 161 l24 27 -29 27 c-30 28 -36 57 -18 90
10 19 10 19 39 -1 15 -11 38 -20 49 -20 27 0 71 -43 71 -68 0 -11 -20 -40 -45
-65 -29 -30 -43 -51 -39 -61 10 -25 41 -19 102 19 32 19 77 38 100 44 24 5 54
19 66 30 12 12 30 21 40 21 10 0 35 10 55 22 64 40 145 71 189 73 33 2 51 10
75 32 89 83 173 115 292 110 65 -3 94 -9 145 -34z m-200 -1127 c0 -173 -4
-317 -8 -320 -5 -3 -76 -6 -158 -7 -168 -2 -192 4 -241 66 l-27 34 -40 -40
c-64 -67 -62 -67 -438 -61 l-338 5 0 303 0 304 152 0 c134 0 157 -2 196 -21
66 -32 97 -86 97 -169 l0 -66 41 29 c32 23 56 30 107 34 86 7 147 -20 187 -84
l29 -45 14 29 c37 70 124 112 203 97 l34 -6 0 116 0 116 95 0 95 0 0 -314z
m1268 -8 l2 -317 -252 -6 c-139 -3 -282 -6 -318 -8 -79 -2 -134 21 -162 70
l-20 33 -19 -24 c-11 -13 -38 -34 -62 -45 -38 -19 -61 -21 -205 -21 l-162 0 0
305 0 305 128 0 c70 0 145 -5 166 -10 77 -17 123 -69 133 -148 l6 -52 198 0
199 0 0 120 0 120 183 -2 182 -3 3 -317z m-2368 -1827 c0 -16 -8 -20 -42 -23
-42 -3 -43 -4 -46 -40 -3 -37 -3 -38 32 -38 29 0 36 -4 36 -19 0 -15 -8 -21
-32 -23 -33 -3 -33 -3 -36 -64 -2 -51 -6 -63 -22 -67 -10 -3 -21 -2 -24 1 -3
3 -6 70 -6 149 l0 143 70 0 c63 0 70 -2 70 -19z m154 -119 c14 -76 26 -142 26
-148 0 -6 -10 -10 -22 -9 -17 1 -24 9 -28 31 -4 22 -11 30 -32 32 -22 3 -27
-2 -33 -26 -6 -28 -39 -50 -49 -34 -2 4 8 71 22 150 l26 142 32 0 32 0 26
-138z m196 118 c11 -11 20 -33 20 -50 0 -25 -4 -30 -24 -30 -19 0 -25 6 -28
28 -2 19 -9 27 -23 27 -18 0 -20 -8 -23 -99 -2 -72 1 -102 10 -107 17 -11 38
9 38 37 0 19 5 24 25 24 22 0 25 -4 25 -34 0 -64 -81 -99 -128 -56 -20 19 -22
30 -22 132 0 90 3 115 17 130 23 25 87 24 113 -2z m200 1 c0 -13 -8 -21 -22
-23 -22 -3 -23 -7 -26 -125 -3 -123 -3 -123 -27 -123 -24 0 -24 0 -27 123 -3
118 -4 122 -25 125 -15 2 -23 10 -23 23 0 17 8 19 75 19 67 0 75 -2 75 -19z
m162 2 c15 -14 18 -32 18 -126 0 -100 -2 -113 -22 -134 -27 -29 -80 -31 -108
-3 -18 18 -20 33 -20 132 0 90 3 115 17 130 21 23 89 24 115 1z m203 -8 c30
-29 33 -74 8 -116 -16 -27 -16 -32 0 -82 22 -70 22 -75 -7 -70 -19 4 -28 17
-43 60 -10 30 -22 55 -28 54 -5 0 -12 -27 -15 -58 -4 -50 -8 -58 -25 -58 -19
0 -20 8 -23 148 l-3 147 56 0 c46 0 60 -4 80 -25z m116 -25 c7 -27 16 -50 19
-50 3 0 12 23 19 50 11 43 16 50 37 50 29 0 29 -2 3 -76 -12 -32 -24 -95 -28
-139 -6 -77 -7 -80 -31 -80 -24 0 -25 3 -31 80 -4 50 -16 105 -32 148 l-26 67
29 0 c26 0 29 -5 41 -50z m383 29 c21 -16 26 -29 26 -63 0 -23 -7 -52 -16 -64
-14 -21 -14 -27 4 -82 11 -32 18 -60 16 -63 -3 -2 -15 -2 -28 0 -19 4 -26 16
-40 65 -21 74 -40 73 -44 -4 -2 -45 -7 -57 -22 -61 -10 -3 -21 -2 -24 1 -3 3
-6 70 -6 149 l0 143 54 0 c39 0 60 -6 80 -21z m191 -1 c12 -56 45 -245 45
-259 0 -12 -7 -15 -25 -11 -20 3 -25 10 -25 33 0 25 -4 29 -29 29 -24 0 -30
-5 -34 -30 -5 -23 -12 -30 -31 -30 -18 0 -23 5 -20 18 2 9 13 69 24 132 26
146 24 140 59 140 24 0 32 -5 36 -22z m224 -4 c30 -38 28 -74 -3 -74 -18 0
-26 6 -28 21 -3 23 -33 48 -43 37 -5 -5 -8 -125 -6 -196 1 -8 10 -12 24 -10
16 2 23 11 25 31 3 21 9 27 28 27 20 0 24 -5 24 -30 0 -66 -80 -103 -131 -61
-22 18 -24 28 -27 123 -3 93 -2 106 18 131 30 38 90 38 119 1z m121 -117 c0
-79 -3 -146 -6 -149 -3 -3 -14 -4 -25 -1 -18 5 -19 15 -19 149 l0 144 25 0 25
0 0 -143z m129 86 c38 -103 40 -104 40 -20 1 76 1 77 26 77 l26 0 -3 -147 c-3
-131 -5 -146 -21 -149 -20 -3 -31 15 -62 105 l-24 66 0 -81 c-1 -72 -3 -82
-20 -87 -11 -3 -22 -2 -25 1 -3 3 -6 70 -6 149 l0 143 24 0 c21 0 28 -9 45
-57z m271 30 c24 -31 23 -66 -3 -71 -12 -3 -21 6 -28 28 -8 20 -17 30 -28 28
-13 -3 -16 -20 -19 -102 -3 -102 6 -128 35 -104 18 14 16 55 -2 62 -8 3 -15
12 -15 21 0 11 11 15 40 15 l40 0 0 -68 c0 -74 -5 -88 -27 -70 -10 8 -17 8
-25 0 -18 -18 -56 -14 -78 8 -18 18 -20 33 -20 132 0 130 9 148 71 148 29 0
42 -6 59 -27z"/>
<path d="M440 3275 c0 -21 41 -55 67 -55 30 0 29 -15 -3 -36 -81 -54 -58 -154
36 -154 34 0 37 -3 47 -42 12 -46 6 -63 -29 -74 -25 -7 -118 -103 -118 -121 0
-21 37 -15 54 8 8 12 21 19 29 16 8 -3 29 3 46 14 19 11 50 19 77 19 39 0 51
5 75 31 35 38 30 53 -6 19 -18 -17 -43 -26 -86 -31 -33 -4 -68 -14 -78 -23
-20 -18 -31 -20 -31 -6 0 19 53 44 109 51 65 9 101 41 101 90 0 42 18 36 22
-8 l3 -38 73 0 c50 0 76 4 81 13 5 9 19 2 49 -26 46 -43 52 -66 22 -82 -22
-12 -38 -6 -58 22 -17 23 -67 25 -58 2 3 -9 6 -18 6 -20 0 -2 5 -4 12 -4 6 0
22 -10 35 -22 l23 -21 61 19 c77 24 97 49 75 93 -15 28 -36 49 -36 36 0 -3 7
-19 15 -35 15 -29 11 -60 -7 -60 -6 0 -8 7 -4 15 3 9 -3 30 -14 48 -25 40 -25
43 1 50 11 3 25 19 32 36 6 17 15 31 20 31 9 0 6 -18 -9 -54 -7 -18 -4 -19 36
-12 l42 7 -19 -34 c-11 -18 -20 -46 -19 -63 1 -24 5 -29 26 -28 38 2 93 11
112 19 9 3 30 -1 47 -9 40 -21 62 -20 35 2 -26 22 -57 72 -45 72 5 0 19 -13
31 -30 12 -16 28 -30 36 -30 9 0 2 16 -21 45 -33 44 -46 77 -59 155 -7 41 -60
110 -129 169 -65 55 -85 59 -156 27 -32 -14 -62 -26 -66 -26 -5 0 -23 -11 -41
-25 -18 -14 -41 -25 -51 -25 -10 0 -38 -14 -62 -30 -24 -17 -55 -30 -68 -30
-13 0 -54 -18 -90 -40 -75 -45 -80 -46 -111 -24 -33 23 -27 55 18 99 50 49 52
85 5 98 -16 5 -38 13 -47 18 -26 13 -38 11 -38 -6z m658 -126 c4 -40 -13 -30
-24 15 -5 22 -4 28 7 24 8 -2 15 -20 17 -39z m166 -128 c9 -17 11 -33 6 -41
-7 -11 -11 -8 -19 13 -7 18 -15 25 -26 21 -18 -7 -21 16 -3 34 14 14 24 8 42
-27z m-29 -111 c3 -6 -1 -13 -10 -16 -19 -8 -30 0 -20 15 8 14 22 14 30 1z"/>
<path d="M1661 3223 c-98 -78 -112 -99 -141 -207 -14 -50 -33 -95 -51 -118
-21 -27 -26 -38 -15 -38 8 0 24 14 36 31 12 16 24 28 27 26 7 -8 -26 -67 -37
-67 -6 0 -10 -4 -10 -9 0 -14 37 -1 56 20 11 12 22 16 33 10 9 -4 32 -11 51
-14 19 -3 42 -8 51 -12 12 -4 21 2 32 24 14 29 14 33 -9 67 -24 35 -25 59 -2
36 7 -7 24 -12 40 -12 25 0 27 2 18 26 -13 33 -13 74 0 74 6 0 10 -13 10 -29
0 -17 11 -42 25 -59 25 -30 25 -31 8 -66 -10 -20 -21 -36 -25 -36 -13 0 -9 24
7 47 8 12 11 24 7 27 -5 3 -16 -9 -26 -25 -34 -57 -4 -92 93 -114 28 -6 36 -3
62 27 30 33 30 33 8 36 -14 3 -28 -4 -39 -18 -13 -18 -20 -20 -43 -11 -35 13
-34 36 1 58 15 9 35 26 44 37 14 17 18 18 18 5 0 -14 11 -15 78 -12 101 6 104
7 102 45 -3 48 -1 55 10 38 5 -8 10 -27 10 -42 0 -14 12 -40 26 -57 22 -26 33
-31 70 -31 43 0 94 -23 94 -42 0 -5 -10 -2 -22 6 -13 9 -43 16 -71 16 -40 0
-53 5 -78 29 -24 25 -29 27 -29 11 0 -28 50 -63 81 -56 16 3 42 -3 65 -14 21
-11 48 -20 60 -20 12 0 27 -7 34 -15 14 -17 50 -20 50 -5 0 5 -14 22 -31 37
-18 16 -38 42 -45 60 -9 20 -22 33 -36 35 -13 2 -23 9 -22 16 1 6 2 30 3 52 1
39 2 40 39 40 79 0 99 69 40 135 -26 30 -29 38 -17 46 8 5 19 9 26 9 13 0 33
31 33 50 0 14 -55 4 -87 -16 -32 -20 -29 -39 17 -91 41 -47 49 -70 28 -91 -21
-21 -57 -13 -132 28 -40 22 -82 40 -92 40 -11 0 -35 11 -54 25 -19 14 -41 25
-49 25 -9 0 -34 12 -56 25 -22 14 -48 25 -57 25 -9 0 -30 11 -46 25 -47 39
-76 32 -171 -42z m92 -47 c-15 -17 -31 -35 -35 -40 -5 -6 -8 -1 -8 11 0 25 46
77 61 67 7 -4 0 -18 -18 -38z m-122 -158 c10 -19 9 -20 -10 -15 -15 4 -27 -2
-41 -20 -24 -31 -37 -25 -20 9 18 34 42 58 51 52 5 -3 14 -15 20 -26z m-10
-123 c-1 -15 -24 -12 -29 3 -3 9 2 13 12 10 10 -1 17 -7 17 -13z"/>
<path d="M940 2870 c12 -23 35 -22 35 1 0 8 -10 15 -23 17 -21 3 -22 1 -12
-18z"/>
<path d="M445 2866 c-11 -8 -14 -15 -8 -19 6 -4 16 0 23 8 17 21 8 28 -15 11z"/>
<path d="M1827 2874 c-9 -10 2 -24 19 -24 8 0 14 7 14 15 0 15 -21 21 -33 9z"/>
<path d="M2342 2859 c2 -7 10 -15 17 -17 8 -3 12 1 9 9 -2 7 -10 15 -17 17 -8
3 -12 -1 -9 -9z"/>
<path d="M403 2820 c-6 -15 -7 -26 -1 -29 15 -5 20 5 16 31 l-5 23 -10 -25z"/>
<path d="M2380 2811 c0 -19 17 -38 25 -29 7 7 -7 48 -16 48 -5 0 -9 -9 -9 -19z"/>
<path d="M1220 2430 l0 -130 -32 20 c-61 37 -157 18 -198 -40 -32 -45 -44
-108 -31 -157 20 -74 88 -133 154 -133 12 0 40 9 62 20 47 24 45 24 45 5 0
-12 13 -15 55 -15 l55 0 0 280 0 280 -55 0 -55 0 0 -130z m-25 -205 c34 -33
34 -93 1 -125 -47 -43 -120 -19 -131 44 -16 84 72 140 130 81z"/>
<path d="M160 2265 l0 -265 55 0 55 0 2 218 3 217 49 3 c39 3 53 -1 72 -19 13
-12 24 -33 24 -46 0 -31 -43 -73 -75 -73 -24 0 -25 -2 -25 -66 0 -63 3 -71 53
-150 l52 -83 68 -1 68 0 -48 68 c-26 37 -60 85 -75 106 -32 44 -34 56 -13 56
8 0 30 14 50 31 62 55 70 148 18 209 -44 53 -69 60 -208 60 l-125 0 0 -265z"/>
<path d="M651 2323 c-124 -65 -133 -243 -15 -310 72 -41 180 -27 233 30 l24
27 -44 19 c-43 18 -44 18 -65 0 -28 -26 -76 -24 -102 4 -40 43 -31 47 98 47
l120 0 0 33 c-1 47 -33 111 -71 137 -44 32 -130 38 -178 13z m117 -69 c12 -8
22 -24 22 -35 0 -17 -7 -19 -65 -19 -71 0 -79 9 -43 47 25 27 54 29 86 7z"/>
<path d="M2317 2554 c-4 -4 -7 -133 -7 -286 l0 -279 53 3 52 3 0 280 0 280
-45 3 c-25 2 -49 0 -53 -4z"/>
<path d="M2495 2548 c-3 -7 -4 -135 -3 -283 l3 -270 50 0 50 0 0 280 0 280
-48 3 c-32 2 -49 -1 -52 -10z"/>
<path d="M1480 2264 l0 -269 152 6 c84 3 154 6 155 7 48 38 75 71 82 100 15
56 -1 111 -43 148 l-36 31 20 38 c25 49 25 91 0 132 -35 58 -60 67 -202 71
l-128 4 0 -268z m218 160 c45 -31 17 -104 -40 -104 -27 0 -28 -2 -28 -45 l0
-45 39 0 c52 0 91 -31 91 -72 0 -53 -23 -68 -102 -68 l-68 0 0 175 0 175 43 0
c23 0 53 -7 65 -16z"/>
<path d="M1920 2199 c0 -142 10 -168 78 -201 86 -41 215 -5 243 69 5 13 9 76
9 139 l0 114 -50 0 -50 0 0 -96 c0 -122 -15 -154 -72 -154 -46 0 -58 31 -58
147 l0 103 -50 0 -50 0 0 -121z"/>
<path d="M355 344 c-7 -46 3 -72 23 -60 9 5 -1 93 -12 103 -2 2 -7 -17 -11
-43z"/>
<path d="M907 424 c-4 -4 -7 -51 -7 -105 0 -72 3 -98 13 -102 31 -12 38 9 35
109 -2 80 -6 99 -18 102 -9 1 -19 0 -23 -4z"/>
<path d="M1100 385 c0 -37 3 -45 18 -45 24 0 42 19 42 45 0 26 -18 45 -42 45
-15 0 -18 -8 -18 -45z"/>
<path d="M1607 424 c-4 -4 -7 -25 -7 -46 0 -34 3 -38 25 -38 43 0 46 79 3 88
-7 1 -17 0 -21 -4z"/>
<path d="M1830 365 c0 -17 -3 -40 -6 -52 -5 -18 -2 -23 14 -23 18 0 20 5 15
43 -7 51 -23 74 -23 32z"/>
</g>
</svg>
