<?xml version="1.0" standalone="no"?>
<!DOCTYPE svg PUBLIC "-//W3C//DTD SVG 20010904//EN"
 "http://www.w3.org/TR/2001/REC-SVG-20010904/DTD/svg10.dtd">
<svg version="1.0" xmlns="http://www.w3.org/2000/svg"
 width="244.000000pt" height="309.000000pt" viewBox="0 0 244.000000 309.000000"
 preserveAspectRatio="xMidYMid meet">

<g transform="translate(0.000000,309.000000) scale(0.100000,-0.100000)"
fill="#000000" stroke="none">
<path d="M30 1545 l0 -1515 1190 0 1190 0 0 1515 0 1515 -1190 0 -1190 0 0
-1515z m1314 1384 c30 -11 77 -39 103 -63 41 -37 53 -43 81 -38 24 3 42 -1 61
-15 14 -11 37 -24 51 -28 13 -4 56 -25 95 -45 39 -21 85 -41 101 -44 16 -4 50
-20 74 -36 79 -52 113 -33 56 30 -40 44 -45 69 -18 92 23 21 92 49 103 42 17
-10 9 -55 -15 -79 -23 -23 -23 -24 -5 -42 10 -10 21 -32 25 -50 5 -26 1 -37
-19 -57 -15 -14 -37 -26 -50 -26 -20 0 -26 -6 -29 -29 -4 -24 0 -31 18 -35 12
-3 24 -15 27 -26 3 -14 10 -18 22 -14 19 8 63 -30 77 -66 7 -19 5 -27 -8 -37
-24 -17 -66 -16 -90 2 -10 8 -28 15 -39 15 -11 0 -29 7 -39 15 -11 8 -35 15
-54 15 -43 0 -71 15 -82 46 -9 23 -13 24 -87 22 -43 0 -63 -3 -45 -5 23 -3 32
-9 32 -23 0 -25 -48 -80 -70 -80 -29 0 -120 32 -120 43 0 5 -20 -9 -44 -31
-137 -126 -330 -129 -465 -7 l-38 35 -58 -20 c-32 -11 -65 -20 -74 -20 -17 1
-57 32 -81 63 -12 17 -11 21 10 38 l25 19 -41 0 c-34 0 -47 -6 -82 -40 -34
-34 -47 -40 -84 -40 -24 0 -52 -7 -62 -15 -11 -8 -26 -15 -34 -15 -7 0 -20 -7
-29 -16 -15 -15 -79 -14 -104 2 -29 18 42 108 79 101 15 -3 26 2 32 13 5 10
20 20 33 24 19 4 23 11 20 30 -4 18 -13 26 -40 31 -19 3 -43 15 -54 26 -26 26
-26 90 1 114 20 18 20 18 -5 41 -16 14 -25 34 -25 52 0 38 8 44 39 28 14 -8
41 -20 59 -26 50 -19 53 -53 7 -100 -23 -23 -35 -45 -33 -56 5 -26 36 -21 94
16 26 16 57 30 69 30 12 0 36 11 55 25 19 14 44 25 56 25 13 0 26 5 29 11 11
17 158 80 173 74 8 -3 36 14 63 39 28 25 73 54 102 65 71 27 179 28 251 0z
m-134 -994 l0 -275 -137 0 c-151 0 -183 10 -219 65 l-17 26 -28 -34 c-50 -61
-70 -64 -386 -59 l-283 4 0 265 0 265 139 -4 c123 -3 143 -5 168 -24 50 -37
73 -81 73 -140 l0 -53 43 24 c81 47 195 28 239 -39 13 -20 25 -36 28 -36 3 0
15 15 27 34 29 45 82 69 144 64 l49 -3 0 98 0 97 80 0 80 0 0 -275z m1090 1
l0 -275 -222 -5 c-123 -4 -244 -6 -270 -7 -54 -1 -99 20 -129 60 l-21 28 -24
-24 c-44 -44 -83 -53 -229 -53 l-135 0 0 266 0 267 133 -5 c148 -5 185 -17
217 -71 11 -18 20 -49 20 -69 l0 -38 175 0 175 0 0 100 0 100 155 0 155 0 0
-274z m-1282 -1566 c-12 -19 -24 -20 -165 -20 -175 0 -153 10 -247 -113 l-59
-77 -54 0 -54 0 60 78 c34 43 61 82 61 85 0 4 -37 7 -82 7 l-82 0 21 21 c32
33 70 37 351 38 260 1 262 1 250 -19z m1022 -26 c0 -3 -25 -36 -55 -74 -82
-103 -86 -104 -304 -108 l-183 -4 18 26 c19 25 22 25 141 26 115 0 123 1 150
25 l28 24 -88 1 c-84 0 -87 1 -75 20 11 17 26 20 107 22 64 2 96 7 99 16 3 9
-38 12 -180 13 -111 0 -175 4 -163 9 22 9 505 14 505 4z m-1145 -14 c-3 -5
-26 -10 -51 -10 -28 0 -43 4 -39 10 3 6 26 10 51 10 28 0 43 -4 39 -10z m60
-40 c-3 -5 -44 -10 -90 -10 -46 0 -87 -4 -90 -10 -4 -6 10 -10 36 -10 36 0 40
-2 29 -15 -8 -9 -29 -15 -56 -15 -23 0 -46 -5 -49 -10 -4 -6 23 -10 75 -10
l80 0 -16 -25 c-16 -25 -18 -25 -151 -25 l-134 0 53 70 53 69 133 1 c86 0 131
-4 127 -10z m300 0 c-3 -5 -44 -10 -89 -10 -84 0 -84 0 -110 -35 l-26 -34 81
-3 81 -3 -18 -23 c-18 -22 -24 -23 -146 -20 l-127 3 51 68 52 67 129 0 c83 0
126 -4 122 -10z m125 2 c0 -4 -5 -13 -12 -20 -9 -9 0 -12 40 -12 41 0 54 4 64
20 10 15 24 20 55 20 l43 0 -53 -69 c-50 -68 -53 -70 -96 -70 -42 -1 -43 0
-28 17 25 28 21 32 -29 32 -37 0 -50 -5 -66 -25 -14 -18 -29 -25 -54 -25 -19
0 -34 3 -34 6 0 3 23 35 51 70 45 56 55 64 85 64 19 0 34 -4 34 -8z"/>
<path d="M402 2788 c3 -21 16 -31 52 -43 18 -5 17 -8 -11 -34 -17 -15 -34 -38
-38 -50 -13 -43 46 -94 90 -77 17 6 20 0 29 -52 5 -30 3 -33 -24 -38 -16 -4
-32 -15 -35 -24 -3 -10 -21 -31 -40 -46 -19 -15 -35 -34 -35 -41 0 -18 39 -16
46 2 4 8 16 15 28 15 12 0 31 7 42 15 10 8 38 15 62 15 32 0 49 6 69 26 32 32
23 43 -13 15 -15 -11 -40 -21 -56 -21 -16 0 -45 -7 -66 -15 -35 -15 -36 -15
-20 1 9 9 40 20 70 25 58 9 88 35 88 75 0 12 5 26 12 30 7 4 8 3 4 -5 -5 -7
-5 -23 -2 -35 5 -21 11 -23 76 -24 52 0 70 3 70 13 0 7 18 -5 40 -27 33 -32
39 -43 29 -54 -17 -20 -47 -17 -61 6 -12 19 -58 29 -58 12 0 -4 15 -20 32 -36
32 -28 33 -28 86 -15 71 17 91 43 67 89 -21 40 -32 32 -15 -10 10 -23 10 -34
1 -43 -8 -8 -11 -5 -11 11 0 13 -7 34 -17 48 -15 24 -15 25 6 31 11 3 24 16
27 29 3 13 10 24 15 24 11 0 11 -3 -1 -35 -10 -26 -9 -26 27 -19 l37 7 -15
-24 c-8 -13 -16 -39 -17 -57 l-2 -34 42 7 c24 3 55 11 70 17 21 8 32 6 50 -6
12 -9 29 -16 38 -16 12 1 12 3 -3 11 -9 5 -24 24 -33 42 l-16 32 30 -32 c46
-49 59 -40 18 11 -26 31 -39 60 -47 102 -8 38 -23 74 -43 101 -39 51 -110 111
-140 119 -20 5 -165 -54 -241 -98 -50 -29 -71 -38 -88 -38 -10 0 -38 -14 -62
-31 -56 -40 -108 -39 -113 3 -3 21 5 36 33 61 48 44 44 66 -18 88 -48 17 -48
17 -45 -3z m544 -82 c3 -8 4 -22 2 -31 -2 -12 -7 -7 -15 14 -6 18 -7 31 -2 31
5 0 12 -6 15 -14z m140 -123 c7 -10 13 -25 13 -33 0 -12 -2 -12 -13 3 -7 9
-20 17 -29 17 -10 0 -14 5 -11 15 8 20 24 19 40 -2z m-21 -113 c-3 -5 -10 -10
-16 -10 -5 0 -9 5 -9 10 0 6 7 10 16 10 8 0 12 -4 9 -10z"/>
<path d="M1465 2768 c-104 -83 -115 -98 -143 -191 -14 -49 -36 -99 -49 -113
-15 -16 -18 -24 -8 -24 7 0 23 12 34 26 12 15 21 22 21 17 0 -6 -9 -22 -21
-37 -16 -20 -17 -26 -6 -26 8 0 20 7 27 15 13 15 67 12 118 -6 17 -7 24 -5 29
9 4 9 10 20 15 23 5 3 -3 22 -17 43 -31 45 -31 52 -3 32 31 -22 62 -21 53 2
-14 37 -17 72 -6 72 6 0 11 -11 11 -24 0 -13 9 -35 20 -49 25 -31 25 -36 -1
-67 -21 -25 -21 -19 -2 28 10 23 -14 12 -25 -12 -16 -36 -5 -60 39 -79 54 -23
69 -21 103 13 l29 30 -25 0 c-14 0 -28 -7 -32 -15 -7 -19 -40 -20 -54 -2 -9
10 -2 22 28 49 22 19 40 30 40 23 0 -9 18 -11 68 -8 76 6 95 17 89 50 -2 13
-1 23 3 23 4 0 10 -17 14 -38 7 -50 35 -74 87 -77 23 -1 48 -10 57 -20 16 -16
16 -17 -5 -6 -12 6 -38 11 -58 11 -27 0 -44 8 -66 29 -31 31 -40 20 -13 -17
10 -15 25 -22 47 -22 18 0 50 -9 71 -19 21 -11 43 -18 50 -15 7 3 19 -2 26
-11 15 -18 40 -20 40 -2 0 6 -14 25 -30 41 -16 16 -32 37 -35 47 -4 11 -15 19
-25 19 -23 0 -26 10 -22 61 4 34 7 38 26 33 29 -7 76 30 76 60 0 12 -13 37
-29 56 l-29 35 29 17 c16 10 29 26 29 37 0 20 -1 20 -42 2 -24 -10 -44 -26
-46 -35 -2 -9 12 -35 32 -56 38 -43 43 -59 24 -78 -19 -19 -47 -14 -99 18 -27
16 -60 32 -75 36 -15 4 -65 26 -113 50 -47 24 -90 44 -94 44 -5 0 -20 9 -34
20 -38 30 -72 24 -128 -22z m53 -56 c-13 -16 -25 -25 -27 -20 -4 11 28 48 41
48 5 0 -1 -13 -14 -28z m-98 -144 c0 -6 -7 -8 -15 -4 -9 3 -20 -3 -27 -14 -13
-21 -28 -27 -28 -11 0 4 9 20 21 35 17 21 24 24 35 15 8 -6 14 -16 14 -21z
m-10 -98 c0 -5 -4 -10 -10 -10 -5 0 -10 5 -10 10 0 6 5 10 10 10 6 0 10 -4 10
-10z"/>
<path d="M822 2448 c5 -15 28 -18 29 -3 0 6 -7 12 -17 13 -10 3 -15 -1 -12
-10z"/>
<path d="M1585 2451 c-3 -5 -1 -12 5 -16 12 -7 30 2 30 16 0 12 -27 12 -35 0z"/>
<path d="M395 2439 c-11 -17 1 -21 15 -4 8 9 8 15 2 15 -6 0 -14 -5 -17 -11z"/>
<path d="M2026 2435 c7 -17 20 -20 28 -6 3 5 -1 12 -10 15 -22 9 -24 8 -18 -9z"/>
<path d="M357 2400 c-6 -24 8 -36 17 -14 8 22 7 34 -3 34 -5 0 -11 -9 -14 -20z"/>
<path d="M2060 2401 c0 -20 13 -35 23 -25 7 8 -4 44 -14 44 -5 0 -9 -9 -9 -19z"/>
<path d="M1080 2066 l0 -113 -39 19 c-74 36 -156 -4 -181 -89 -18 -60 -6 -110
40 -155 31 -32 44 -38 79 -38 23 0 55 7 71 15 17 9 30 11 30 5 0 -5 20 -10 45
-10 l45 0 0 240 0 240 -45 0 -45 0 0 -114z m-15 -176 c26 -28 16 -88 -18 -114
-26 -19 -30 -19 -55 -5 -40 22 -57 62 -40 96 24 51 78 61 113 23z"/>
<path d="M178 2154 c-5 -4 -8 -108 -8 -231 l0 -223 50 0 50 0 0 190 0 190 38
0 c40 0 82 -31 82 -61 0 -26 -29 -57 -60 -64 -29 -6 -30 -9 -30 -57 0 -43 7
-63 46 -125 l45 -73 55 0 c30 0 54 2 54 5 0 2 -27 42 -60 88 -33 47 -60 87
-60 90 0 4 14 14 30 22 65 34 89 120 50 182 -33 55 -62 67 -174 71 -56 2 -104
1 -108 -4z"/>
<path d="M580 1968 c-53 -37 -74 -72 -74 -126 0 -59 27 -109 72 -135 57 -34
163 -20 201 27 16 19 8 31 -28 44 -23 8 -32 7 -42 -4 -16 -20 -73 -18 -92 4
-33 36 -22 42 83 42 l100 0 0 38 c0 105 -130 171 -220 110z m112 -55 c33 -30
23 -43 -37 -43 -59 0 -68 10 -38 42 20 22 51 23 75 1z"/>
<path d="M2020 1940 l0 -240 45 0 45 0 0 240 0 240 -45 0 -45 0 0 -240z"/>
<path d="M2180 1940 l0 -240 45 0 45 0 0 240 0 240 -45 0 -45 0 0 -240z"/>
<path d="M1300 1931 l0 -231 126 0 c110 0 131 3 159 20 72 44 79 152 14 203
-31 24 -31 25 -14 51 21 32 22 97 0 129 -24 38 -62 50 -177 55 l-108 5 0 -232z
m194 133 c19 -19 21 -58 3 -72 -6 -6 -24 -13 -40 -17 -22 -6 -27 -13 -27 -40
0 -31 2 -33 42 -38 45 -6 78 -35 78 -67 0 -32 -47 -60 -101 -60 l-49 0 0 155
0 155 39 0 c23 0 46 -7 55 -16z"/>
<path d="M1680 1879 c0 -77 4 -108 17 -130 48 -80 208 -80 256 0 13 22 17 53
17 130 l0 101 -45 0 -45 0 0 -95 c0 -91 -1 -95 -26 -112 -24 -15 -29 -15 -53
-2 -25 14 -26 19 -29 112 l-3 97 -44 0 -45 0 0 -101z"/>
</g>
</svg>
