<?xml version="1.0" standalone="no"?>
<!DOCTYPE svg PUBLIC "-//W3C//DTD SVG 20010904//EN"
 "http://www.w3.org/TR/2001/REC-SVG-20010904/DTD/svg10.dtd">
<svg version="1.0" xmlns="http://www.w3.org/2000/svg"
 width="604.000000pt" height="391.000000pt" viewBox="0 0 604.000000 391.000000"
 preserveAspectRatio="xMidYMid meet">

<g transform="translate(0.000000,391.000000) scale(0.100000,-0.100000)"
fill="#000000" stroke="none">
<path d="M2742 3280 c-54 -25 -118 -68 -172 -119 l-42 -39 -84 34 c-46 19 -90
34 -98 34 -11 0 -25 -27 -26 -52 0 -3 30 -16 68 -29 111 -36 106 -28 66 -112
-66 -140 -77 -289 -32 -436 57 -184 205 -332 398 -397 68 -23 250 -26 325 -5
225 63 400 260 440 494 5 34 9 37 28 31 39 -12 43 -11 11 4 -30 13 -31 16 -37
91 -16 203 -136 387 -315 483 -26 14 -58 29 -72 32 -14 4 2 -6 35 -23 73 -36
169 -121 219 -193 47 -69 83 -176 92 -273 6 -65 5 -75 -10 -75 -9 0 -79 25
-156 56 l-140 56 0 119 0 119 -55 0 -55 0 0 -96 c0 -94 0 -95 -22 -88 -71 22
-68 17 -68 104 l0 80 -55 0 -55 0 0 -55 c0 -30 -3 -55 -7 -55 -18 0 -358 140
-361 148 -5 17 112 113 182 148 72 36 71 46 -2 14z m-112 -254 l95 -33 3 -287
2 -287 53 3 52 3 3 263 2 263 23 -7 c12 -4 32 -10 45 -15 l22 -9 0 -250 0
-250 55 0 55 0 0 231 0 230 23 -7 c74 -23 67 1 67 -239 l0 -215 55 0 55 0 0
196 c0 182 1 196 18 191 44 -13 275 -97 280 -102 11 -11 -18 -120 -48 -182
-64 -129 -177 -231 -315 -283 -83 -31 -227 -38 -315 -15 -198 51 -370 229
-410 422 -17 82 -8 235 18 307 23 62 48 106 60 106 4 -1 50 -16 102 -34z"/>
<path d="M252 1903 l3 -68 83 -3 82 -3 0 -324 0 -325 75 0 75 0 0 325 0 324
83 3 82 3 3 68 3 67 -246 0 -246 0 3 -67z"/>
<path d="M819 1966 c-2 -2 -3 -180 -1 -396 l2 -391 73 3 72 3 3 158 c2 115 6
157 15 158 14 1 138 1 149 0 4 -1 9 -72 10 -158 l3 -158 75 0 75 0 3 155 2
156 -35 34 c-19 19 -35 38 -35 43 0 5 11 22 25 39 23 27 25 37 25 137 l0 107
-58 57 -58 57 -170 0 c-94 0 -173 -2 -175 -4z m330 -216 c0 -44 -2 -87 -5 -95
-5 -12 -24 -15 -90 -15 l-84 0 0 95 0 95 89 0 89 0 1 -80z"/>
<path d="M1546 1953 c-13 -43 -166 -741 -166 -756 0 -14 11 -17 74 -17 l75 0
11 58 c23 115 9 103 123 100 l101 -3 15 -75 16 -75 79 -3 c77 -3 78 -3 73 20
-3 13 -40 174 -82 358 -42 184 -80 352 -86 373 l-10 37 -109 0 c-95 0 -109 -2
-114 -17z m146 -291 c15 -75 27 -140 27 -144 1 -5 -26 -8 -59 -8 -37 0 -60 4
-60 11 0 28 54 288 59 284 3 -3 18 -68 33 -143z"/>
<path d="M2062 1917 l-52 -53 0 -284 0 -284 57 -58 57 -58 127 0 126 0 56 57
57 58 0 82 0 83 -75 0 -75 0 0 -70 0 -71 -87 3 -88 3 -3 253 -2 252 90 0 90 0
0 -70 0 -70 75 0 75 0 0 88 0 88 -53 52 -53 52 -135 0 -135 0 -52 -53z"/>
<path d="M2572 1578 l3 -393 75 0 75 0 3 158 c1 86 6 157 11 157 4 0 39 -71
77 -157 l69 -158 83 -3 c45 -2 82 1 82 6 0 5 -40 95 -89 200 l-90 190 89 189
c50 103 90 191 90 196 0 4 -37 7 -83 7 l-83 0 -69 -161 c-39 -88 -73 -163 -77
-165 -5 -3 -8 69 -8 160 l0 166 -80 0 -80 0 2 -392z"/>
<path d="M3130 1575 l0 -395 75 0 75 0 0 165 0 165 90 0 90 0 0 -165 0 -166
73 3 72 3 3 393 2 392 -75 0 -75 0 0 -160 0 -160 -90 0 -90 0 0 160 0 160 -75
0 -75 0 0 -395z"/>
<path d="M3742 1917 l-52 -53 0 -284 0 -284 57 -58 57 -58 130 0 129 0 54 53
53 54 0 289 0 290 -53 52 -53 52 -135 0 -135 0 -52 -53z m278 -342 l0 -256
-87 3 -88 3 -3 253 -2 252 90 0 90 0 0 -255z"/>
<path d="M4260 1968 c0 -2 -1 -155 -1 -342 l-1 -338 53 -54 53 -54 131 0 131
0 57 58 57 58 0 337 0 337 -80 0 -80 0 0 -325 0 -325 -85 0 -85 0 0 325 0 325
-75 0 c-41 0 -75 -1 -75 -2z"/>
<path d="M4872 1917 l-52 -53 0 -119 0 -119 57 -58 57 -58 108 0 108 0 0 -95
0 -96 -87 3 -88 3 -3 58 -3 57 -74 0 -75 0 0 -72 0 -72 57 -58 57 -58 127 0
126 0 57 57 56 56 0 122 0 121 -58 57 -58 57 -107 0 -107 0 0 90 0 90 90 0 90
0 0 -60 0 -60 75 0 75 0 0 78 0 78 -53 52 -53 52 -135 0 -135 0 -52 -53z"/>
<path d="M5382 1578 l3 -393 210 0 210 0 3 68 3 67 -136 0 -135 0 0 95 0 95
125 0 125 0 0 70 0 70 -125 0 -125 0 0 90 0 89 133 3 132 3 3 68 3 67 -216 0
-215 0 2 -392z"/>
<path d="M328 1089 c-10 -17 -18 -35 -18 -40 0 -5 59 -9 133 -9 90 0 137 -4
145 -12 18 -18 14 -56 -7 -68 -11 -6 -87 -10 -176 -10 -139 0 -156 -2 -151
-16 3 -9 6 -47 6 -85 l0 -69 43 3 c42 3 42 3 47 47 l5 45 65 3 c88 4 101 -1
131 -51 26 -42 27 -43 83 -45 31 0 56 3 56 9 0 5 -11 27 -25 48 l-26 38 31 31
c27 27 30 37 30 89 0 46 -5 64 -21 82 -33 35 -61 41 -202 41 l-132 0 -17 -31z"/>
<path d="M907 1083 c-42 -68 -167 -290 -167 -297 0 -4 25 -6 56 -4 l57 3 57
100 c32 54 62 101 67 102 5 2 29 -32 53 -74 74 -132 74 -133 131 -133 27 0 49
5 49 10 0 6 -41 83 -91 170 l-90 160 -49 0 c-47 0 -51 -2 -73 -37z"/>
<path d="M1299 1097 l-34 -23 -3 -113 c-4 -177 6 -184 268 -179 l165 3 3 38 3
37 -153 0 c-109 0 -159 4 -171 13 -13 9 -18 28 -20 74 -2 93 -3 93 184 93
l159 0 0 40 0 40 -184 0 c-174 0 -185 -1 -217 -23z"/>
<path d="M1742 953 l3 -168 48 -3 47 -3 0 170 0 171 -50 0 -50 0 2 -167z"/>
<path d="M1885 1108 c-3 -7 -4 -83 -2 -168 l2 -155 48 -3 47 -3 0 130 0 131
108 0 c143 0 142 1 142 -149 l0 -112 48 3 47 3 3 125 c4 205 -2 210 -262 210
-132 0 -178 -3 -181 -12z"/>
<path d="M2418 1104 c-41 -22 -48 -43 -48 -153 0 -97 1 -102 29 -133 l29 -33
191 -3 191 -4 0 71 0 71 -50 0 c-49 0 -50 -1 -50 -30 l0 -30 -103 0 c-126 0
-137 7 -137 93 0 85 3 87 186 87 l154 0 0 40 0 40 -182 0 c-142 -1 -189 -4
-210 -16z"/>
<path d="M3000 951 l0 -170 45 2 45 1 0 93 c0 50 4 94 8 97 4 2 34 -29 67 -69
33 -41 65 -74 71 -75 6 0 40 35 75 78 l64 77 5 -100 5 -100 45 0 45 0 3 168 2
167 -49 0 -50 0 -67 -80 c-37 -44 -72 -80 -78 -80 -6 0 -40 36 -75 80 l-64 80
-49 0 -48 0 0 -169z"/>
<path d="M4928 1105 c-41 -23 -48 -45 -48 -157 1 -162 11 -168 290 -165 l145
2 3 68 3 67 -51 0 c-49 0 -50 -1 -50 -30 l0 -30 -103 0 c-70 0 -109 4 -121 13
-27 19 -34 108 -12 142 16 24 18 25 174 27 l157 3 0 35 0 35 -180 2 c-144 2
-185 -1 -207 -12z"/>
<path d="M5360 956 c0 -178 -2 -174 60 -171 34 1 35 1 38 48 l3 47 139 0 140
0 32 29 c30 27 33 34 33 89 -1 109 -30 122 -270 122 l-175 0 0 -164z m342 59
c9 -21 8 -28 -7 -45 -17 -19 -29 -20 -124 -18 l-106 3 -3 43 -3 42 116 0 c113
0 116 0 127 -25z"/>
<path d="M3549 1031 c-27 -27 -29 -35 -29 -105 0 -69 3 -79 28 -107 28 -31 29
-31 147 -36 204 -9 245 15 245 144 0 69 -2 77 -29 104 l-29 29 -152 0 -152 0
-29 -29z m273 -58 c22 -20 24 -76 2 -97 -22 -23 -160 -22 -186 1 -22 20 -23
70 -1 95 22 25 157 26 185 1z"/>
<path d="M3980 1025 l0 -35 75 0 74 0 3 -102 3 -103 45 0 45 0 3 103 3 102 69
0 70 0 0 35 0 35 -195 0 -195 0 0 -35z"/>
<path d="M4446 1035 c-24 -22 -26 -30 -26 -110 0 -79 2 -88 25 -109 14 -13 40
-26 58 -28 62 -10 216 -9 256 2 59 16 71 39 71 138 0 75 -2 85 -25 107 -23 24
-28 25 -178 25 -150 0 -155 -1 -181 -25z m269 -59 c13 -9 19 -26 19 -51 0 -52
-22 -65 -109 -65 -87 0 -109 13 -109 65 0 25 6 42 19 51 25 19 155 19 180 0z"/>
</g>
</svg>
